<?xml version="1.0" standalone="no"?>
<!DOCTYPE svg PUBLIC "-//W3C//DTD SVG 1.1//EN" "http://www.w3.org/Graphics/SVG/1.1/DTD/svg11.dtd">
<svg width="204mm" height="176mm" viewBox="-102 -176 204 176" xmlns="http://www.w3.org/2000/svg" version="1.1">
<title>OpenSCAD Model</title>
<path d="
M 101,-56 L 92.495,-56 L 92.495,-96 L 101,-96 L 101,-144 L 101.103,-144
 L 95.8565,-147.606 L 88,-152.42 L 79.9023,-156.817 L 71.5856,-160.784 L 63.0728,-164.31 L 54.387,-167.386
 L 45.5521,-170.003 L 36.5925,-172.154 L 27.5325,-173.833 L 18.397,-175.036 L 9.21112,-175.759 L 0,-176
 L -9.21112,-175.759 L -18.397,-175.036 L -27.5325,-173.833 L -36.5925,-172.154 L -45.5521,-170.003 L -54.387,-167.386
 L -63.0728,-164.31 L -71.5856,-160.784 L -79.9023,-156.817 L -88,-152.42 L -95.8565,-147.606 L -101.103,-144
 L -101,-144 L -101,-95.7 L -92.495,-95.7 L -92.495,-17.7 L -101,-17.7 L -101,-0
 L 101,-0 z
M 26.8679,-158.906 L 26.5066,-158.951 L 26.1538,-159.042 L 25.8152,-159.176 L 25.4961,-159.351 L 25.2015,-159.566
 L 24.936,-159.815 L 24.7038,-160.095 L 24.5087,-160.403 L 24.3536,-160.732 L 24.2411,-161.079 L 24.1729,-161.437
 L 24.15,-161.8 L 24.1729,-162.163 L 24.2411,-162.521 L 24.3536,-162.868 L 24.5087,-163.197 L 24.7038,-163.505
 L 24.936,-163.785 L 25.2015,-164.034 L 25.4961,-164.249 L 25.8152,-164.424 L 26.1538,-164.558 L 26.5066,-164.649
 L 26.8679,-164.694 L 27.2321,-164.694 L 27.5934,-164.649 L 27.9461,-164.558 L 28.2848,-164.424 L 28.6039,-164.249
 L 28.8985,-164.034 L 29.164,-163.785 L 29.3961,-163.505 L 29.5913,-163.197 L 29.7463,-162.868 L 29.8589,-162.521
 L 29.9271,-162.163 L 29.95,-161.8 L 29.9271,-161.437 L 29.8589,-161.079 L 29.7463,-160.732 L 29.5913,-160.403
 L 29.3961,-160.095 L 29.164,-159.815 L 28.8985,-159.566 L 28.6039,-159.351 L 28.2848,-159.176 L 27.9461,-159.042
 L 27.5934,-158.951 L 27.2321,-158.906 z
M -27.2321,-158.906 L -27.5934,-158.951 L -27.9461,-159.042 L -28.2848,-159.176 L -28.6039,-159.351 L -28.8985,-159.566
 L -29.164,-159.815 L -29.3961,-160.095 L -29.5913,-160.403 L -29.7463,-160.732 L -29.8589,-161.079 L -29.9271,-161.437
 L -29.95,-161.8 L -29.9271,-162.163 L -29.8589,-162.521 L -29.7463,-162.868 L -29.5913,-163.197 L -29.3961,-163.505
 L -29.164,-163.785 L -28.8985,-164.034 L -28.6039,-164.249 L -28.2848,-164.424 L -27.9461,-164.558 L -27.5934,-164.649
 L -27.2321,-164.694 L -26.8679,-164.694 L -26.5066,-164.649 L -26.1538,-164.558 L -25.8152,-164.424 L -25.4961,-164.249
 L -25.2015,-164.034 L -24.936,-163.785 L -24.7038,-163.505 L -24.5087,-163.197 L -24.3536,-162.868 L -24.2411,-162.521
 L -24.1729,-162.163 L -24.15,-161.8 L -24.1729,-161.437 L -24.2411,-161.079 L -24.3536,-160.732 L -24.5087,-160.403
 L -24.7038,-160.095 L -24.936,-159.815 L -25.2015,-159.566 L -25.4961,-159.351 L -25.8152,-159.176 L -26.1538,-159.042
 L -26.5066,-158.951 L -26.8679,-158.906 z
M 73.8215,-143.002 L 73.7432,-143.008 L 73.6653,-143.018 L 73.5881,-143.033 L 73.5118,-143.051 L 73.4365,-143.073
 L 73.3624,-143.1 L 73.2899,-143.13 L 73.219,-143.163 L 73.15,-143.201 L 73.083,-143.242 L 73.0183,-143.286
 L 72.956,-143.334 L 72.8963,-143.385 L 72.8393,-143.439 L 72.7853,-143.496 L 72.7343,-143.556 L 72.6865,-143.618
 L 72.642,-143.683 L 72.601,-143.75 L 72.5635,-143.819 L 72.5297,-143.89 L 72.4996,-143.962 L 72.4734,-144.036
 L 72.4511,-144.112 L 72.4328,-144.188 L 72.4185,-144.265 L 72.4082,-144.343 L 72.4021,-144.421 L 72.4,-144.5
 L 72.4021,-144.578 L 72.4082,-144.657 L 72.4185,-144.735 L 72.4328,-144.812 L 72.4511,-144.888 L 72.4734,-144.964
 L 72.4996,-145.038 L 72.5297,-145.11 L 72.5635,-145.181 L 72.601,-145.25 L 72.642,-145.317 L 72.6865,-145.382
 L 72.7343,-145.444 L 72.7853,-145.504 L 72.8393,-145.561 L 72.8963,-145.615 L 72.956,-145.666 L 73.0183,-145.714
 L 73.083,-145.758 L 73.15,-145.799 L 73.219,-145.837 L 73.2899,-145.87 L 73.3624,-145.9 L 73.4365,-145.927
 L 73.5118,-145.949 L 73.5881,-145.967 L 73.6653,-145.982 L 73.7432,-145.992 L 73.8215,-145.998 L 73.9,-146
 L 73.9785,-145.998 L 74.0568,-145.992 L 74.1346,-145.982 L 74.2119,-145.967 L 74.2882,-145.949 L 74.3635,-145.927
 L 74.4375,-145.9 L 74.5101,-145.87 L 74.581,-145.837 L 74.65,-145.799 L 74.7169,-145.758 L 74.7817,-145.714
 L 74.844,-145.666 L 74.9037,-145.615 L 74.9606,-145.561 L 75.0147,-145.504 L 75.0657,-145.444 L 75.1135,-145.382
 L 75.158,-145.317 L 75.199,-145.25 L 75.2365,-145.181 L 75.2703,-145.11 L 75.3004,-145.038 L 75.3266,-144.964
 L 75.3489,-144.888 L 75.3672,-144.812 L 75.3815,-144.735 L 75.3918,-144.657 L 75.3979,-144.578 L 75.4,-144.5
 L 75.3979,-144.421 L 75.3918,-144.343 L 75.3815,-144.265 L 75.3672,-144.188 L 75.3489,-144.112 L 75.3266,-144.036
 L 75.3004,-143.962 L 75.2703,-143.89 L 75.2365,-143.819 L 75.199,-143.75 L 75.158,-143.683 L 75.1135,-143.618
 L 75.0657,-143.556 L 75.0147,-143.496 L 74.9606,-143.439 L 74.9037,-143.385 L 74.844,-143.334 L 74.7817,-143.286
 L 74.7169,-143.242 L 74.65,-143.201 L 74.581,-143.163 L 74.5101,-143.13 L 74.4375,-143.1 L 74.3635,-143.073
 L 74.2882,-143.051 L 74.2119,-143.033 L 74.1346,-143.018 L 74.0568,-143.008 L 73.9785,-143.002 L 73.9,-143
 z
M -0.0784912,-125.002 L -0.156784,-125.008 L -0.23465,-125.018 L -0.311859,-125.033 L -0.388214,-125.051 L -0.463516,-125.073
 L -0.537552,-125.1 L -0.610092,-125.13 L -0.680984,-125.163 L -0.75,-125.201 L -0.816956,-125.242 L -0.881668,-125.286
 L -0.94397,-125.334 L -1.00369,-125.385 L -1.06065,-125.439 L -1.11472,-125.496 L -1.16571,-125.556 L -1.21352,-125.618
 L -1.258,-125.683 L -1.29903,-125.75 L -1.3365,-125.819 L -1.37032,-125.89 L -1.40036,-125.962 L -1.42657,-126.036
 L -1.44888,-126.112 L -1.46721,-126.188 L -1.48152,-126.265 L -1.49178,-126.343 L -1.49794,-126.421 L -1.5,-126.5
 L -1.49794,-126.578 L -1.49178,-126.657 L -1.48152,-126.735 L -1.46721,-126.812 L -1.44888,-126.888 L -1.42657,-126.964
 L -1.40036,-127.038 L -1.37032,-127.11 L -1.3365,-127.181 L -1.29903,-127.25 L -1.258,-127.317 L -1.21352,-127.382
 L -1.16571,-127.444 L -1.11472,-127.504 L -1.06065,-127.561 L -1.00369,-127.615 L -0.94397,-127.666 L -0.881668,-127.714
 L -0.816956,-127.758 L -0.75,-127.799 L -0.680984,-127.837 L -0.610092,-127.87 L -0.537552,-127.9 L -0.463516,-127.927
 L -0.388214,-127.949 L -0.311859,-127.967 L -0.23465,-127.982 L -0.156784,-127.992 L -0.0784912,-127.998 L 0,-128
 L 0.0784912,-127.998 L 0.156784,-127.992 L 0.23465,-127.982 L 0.311859,-127.967 L 0.388214,-127.949 L 0.463516,-127.927
 L 0.537552,-127.9 L 0.610092,-127.87 L 0.680984,-127.837 L 0.75,-127.799 L 0.816956,-127.758 L 0.881668,-127.714
 L 0.94397,-127.666 L 1.00369,-127.615 L 1.06065,-127.561 L 1.11472,-127.504 L 1.16571,-127.444 L 1.21352,-127.382
 L 1.258,-127.317 L 1.29903,-127.25 L 1.3365,-127.181 L 1.37032,-127.11 L 1.40036,-127.038 L 1.42657,-126.964
 L 1.44888,-126.888 L 1.46721,-126.812 L 1.48152,-126.735 L 1.49178,-126.657 L 1.49794,-126.578 L 1.5,-126.5
 L 1.49794,-126.421 L 1.49178,-126.343 L 1.48152,-126.265 L 1.46721,-126.188 L 1.44888,-126.112 L 1.42657,-126.036
 L 1.40036,-125.962 L 1.37032,-125.89 L 1.3365,-125.819 L 1.29903,-125.75 L 1.258,-125.683 L 1.21352,-125.618
 L 1.16571,-125.556 L 1.11472,-125.496 L 1.06065,-125.439 L 1.00369,-125.385 L 0.94397,-125.334 L 0.881668,-125.286
 L 0.816956,-125.242 L 0.75,-125.201 L 0.680984,-125.163 L 0.610092,-125.13 L 0.537552,-125.1 L 0.463516,-125.073
 L 0.388214,-125.051 L 0.311859,-125.033 L 0.23465,-125.018 L 0.156784,-125.008 L 0.0784912,-125.002 L 0,-125
 z
M -92.4785,-113.002 L -92.5568,-113.008 L -92.6346,-113.018 L -92.7119,-113.033 L -92.7882,-113.051 L -92.8635,-113.073
 L -92.9375,-113.1 L -93.0101,-113.13 L -93.081,-113.163 L -93.15,-113.201 L -93.2169,-113.242 L -93.2817,-113.286
 L -93.344,-113.334 L -93.4037,-113.385 L -93.4606,-113.439 L -93.5147,-113.496 L -93.5657,-113.556 L -93.6135,-113.618
 L -93.658,-113.683 L -93.699,-113.75 L -93.7365,-113.819 L -93.7703,-113.89 L -93.8004,-113.962 L -93.8266,-114.036
 L -93.8489,-114.112 L -93.8672,-114.188 L -93.8815,-114.265 L -93.8918,-114.343 L -93.8979,-114.421 L -93.9,-114.5
 L -93.8979,-114.578 L -93.8918,-114.657 L -93.8815,-114.735 L -93.8672,-114.812 L -93.8489,-114.888 L -93.8266,-114.964
 L -93.8004,-115.038 L -93.7703,-115.11 L -93.7365,-115.181 L -93.699,-115.25 L -93.658,-115.317 L -93.6135,-115.382
 L -93.5657,-115.444 L -93.5147,-115.504 L -93.4606,-115.561 L -93.4037,-115.615 L -93.344,-115.666 L -93.2817,-115.714
 L -93.2169,-115.758 L -93.15,-115.799 L -93.081,-115.837 L -93.0101,-115.87 L -92.9375,-115.9 L -92.8635,-115.927
 L -92.7882,-115.949 L -92.7119,-115.967 L -92.6346,-115.982 L -92.5568,-115.992 L -92.4785,-115.998 L -92.4,-116
 L -92.3215,-115.998 L -92.2432,-115.992 L -92.1653,-115.982 L -92.0881,-115.967 L -92.0118,-115.949 L -91.9365,-115.927
 L -91.8624,-115.9 L -91.7899,-115.87 L -91.719,-115.837 L -91.65,-115.799 L -91.583,-115.758 L -91.5183,-115.714
 L -91.456,-115.666 L -91.3963,-115.615 L -91.3393,-115.561 L -91.2853,-115.504 L -91.2343,-115.444 L -91.1865,-115.382
 L -91.142,-115.317 L -91.101,-115.25 L -91.0635,-115.181 L -91.0297,-115.11 L -90.9996,-115.038 L -90.9734,-114.964
 L -90.9511,-114.888 L -90.9328,-114.812 L -90.9185,-114.735 L -90.9082,-114.657 L -90.9021,-114.578 L -90.9,-114.5
 L -90.9021,-114.421 L -90.9082,-114.343 L -90.9185,-114.265 L -90.9328,-114.188 L -90.9511,-114.112 L -90.9734,-114.036
 L -90.9996,-113.962 L -91.0297,-113.89 L -91.0635,-113.819 L -91.101,-113.75 L -91.142,-113.683 L -91.1865,-113.618
 L -91.2343,-113.556 L -91.2853,-113.496 L -91.3393,-113.439 L -91.3963,-113.385 L -91.456,-113.334 L -91.5183,-113.286
 L -91.583,-113.242 L -91.65,-113.201 L -91.719,-113.163 L -91.7899,-113.13 L -91.8624,-113.1 L -91.9365,-113.073
 L -92.0118,-113.051 L -92.0881,-113.033 L -92.1653,-113.018 L -92.2432,-113.008 L -92.3215,-113.002 L -92.4,-113
 z
M 72.8179,-82.2057 L 72.4566,-82.2514 L 72.1038,-82.3419 L 71.7652,-82.476 L 71.4461,-82.6514 L 71.1515,-82.8655
 L 70.886,-83.1148 L 70.6538,-83.3954 L 70.4587,-83.7029 L 70.3036,-84.0324 L 70.1911,-84.3788 L 70.1229,-84.7365
 L 70.1,-85.1 L 70.1229,-85.4635 L 70.1911,-85.8212 L 70.3036,-86.1676 L 70.4587,-86.4971 L 70.6538,-86.8046
 L 70.886,-87.0852 L 71.1515,-87.3345 L 71.4461,-87.5485 L 71.7652,-87.724 L 72.1038,-87.8581 L 72.4566,-87.9486
 L 72.8179,-87.9943 L 73.1821,-87.9943 L 73.5434,-87.9486 L 73.8961,-87.8581 L 74.2348,-87.724 L 74.5539,-87.5485
 L 74.8485,-87.3345 L 75.114,-87.0852 L 75.3461,-86.8046 L 75.5413,-86.4971 L 75.6964,-86.1676 L 75.8089,-85.8212
 L 75.8771,-85.4635 L 75.9,-85.1 L 75.8771,-84.7365 L 75.8089,-84.3788 L 75.6964,-84.0324 L 75.5413,-83.7029
 L 75.3461,-83.3954 L 75.114,-83.1148 L 74.8485,-82.8655 L 74.5539,-82.6514 L 74.2348,-82.476 L 73.8961,-82.3419
 L 73.5434,-82.2514 L 73.1821,-82.2057 z
M -73.1821,-82.2057 L -73.5434,-82.2514 L -73.8961,-82.3419 L -74.2348,-82.476 L -74.5539,-82.6514 L -74.8485,-82.8655
 L -75.114,-83.1148 L -75.3461,-83.3954 L -75.5413,-83.7029 L -75.6964,-84.0324 L -75.8089,-84.3788 L -75.8771,-84.7365
 L -75.9,-85.1 L -75.8771,-85.4635 L -75.8089,-85.8212 L -75.6964,-86.1676 L -75.5413,-86.4971 L -75.3461,-86.8046
 L -75.114,-87.0852 L -74.8485,-87.3345 L -74.5539,-87.5485 L -74.2348,-87.724 L -73.8961,-87.8581 L -73.5434,-87.9486
 L -73.1821,-87.9943 L -72.8179,-87.9943 L -72.4566,-87.9486 L -72.1038,-87.8581 L -71.7652,-87.724 L -71.4461,-87.5485
 L -71.1515,-87.3345 L -70.886,-87.0852 L -70.6538,-86.8046 L -70.4587,-86.4971 L -70.3036,-86.1676 L -70.1911,-85.8212
 L -70.1229,-85.4635 L -70.1,-85.1 L -70.1229,-84.7365 L -70.1911,-84.3788 L -70.3036,-84.0324 L -70.4587,-83.7029
 L -70.6538,-83.3954 L -70.886,-83.1148 L -71.1515,-82.8655 L -71.4461,-82.6514 L -71.7652,-82.476 L -72.1038,-82.3419
 L -72.4566,-82.2514 L -72.8179,-82.2057 z
M 24.9679,-53.8057 L 24.6066,-53.8513 L 24.2538,-53.9419 L 23.9152,-54.076 L 23.5961,-54.2514 L 23.3015,-54.4655
 L 23.036,-54.7148 L 22.8038,-54.9954 L 22.6087,-55.3029 L 22.4536,-55.6324 L 22.3411,-55.9788 L 22.2729,-56.3365
 L 22.25,-56.7 L 22.2729,-57.0634 L 22.3411,-57.4212 L 22.4536,-57.7675 L 22.6087,-58.0971 L 22.8038,-58.4046
 L 23.036,-58.6852 L 23.3015,-58.9345 L 23.5961,-59.1485 L 23.9152,-59.324 L 24.2538,-59.458 L 24.6066,-59.5486
 L 24.9679,-59.5943 L 25.3321,-59.5943 L 25.6934,-59.5486 L 26.0461,-59.458 L 26.3848,-59.324 L 26.7039,-59.1485
 L 26.9985,-58.9345 L 27.264,-58.6852 L 27.4961,-58.4046 L 27.6913,-58.0971 L 27.8463,-57.7675 L 27.9589,-57.4212
 L 28.0271,-57.0634 L 28.05,-56.7 L 28.0271,-56.3365 L 27.9589,-55.9788 L 27.8463,-55.6324 L 27.6913,-55.3029
 L 27.4961,-54.9954 L 27.264,-54.7148 L 26.9985,-54.4655 L 26.7039,-54.2514 L 26.3848,-54.076 L 26.0461,-53.9419
 L 25.6934,-53.8513 L 25.3321,-53.8057 z
M -25.3321,-53.8057 L -25.6934,-53.8513 L -26.0461,-53.9419 L -26.3848,-54.076 L -26.7039,-54.2514 L -26.9985,-54.4655
 L -27.264,-54.7148 L -27.4961,-54.9954 L -27.6913,-55.3029 L -27.8463,-55.6324 L -27.9589,-55.9788 L -28.0271,-56.3365
 L -28.05,-56.7 L -28.0271,-57.0634 L -27.9589,-57.4212 L -27.8463,-57.7675 L -27.6913,-58.0971 L -27.4961,-58.4046
 L -27.264,-58.6852 L -26.9985,-58.9345 L -26.7039,-59.1485 L -26.3848,-59.324 L -26.0461,-59.458 L -25.6934,-59.5486
 L -25.3321,-59.5943 L -24.9679,-59.5943 L -24.6066,-59.5486 L -24.2538,-59.458 L -23.9152,-59.324 L -23.5961,-59.1485
 L -23.3015,-58.9345 L -23.036,-58.6852 L -22.8038,-58.4046 L -22.6087,-58.0971 L -22.4536,-57.7675 L -22.3411,-57.4212
 L -22.2729,-57.0634 L -22.25,-56.7 L -22.2729,-56.3365 L -22.3411,-55.9788 L -22.4536,-55.6324 L -22.6087,-55.3029
 L -22.8038,-54.9954 L -23.036,-54.7148 L -23.3015,-54.4655 L -23.5961,-54.2514 L -23.9152,-54.076 L -24.2538,-53.9419
 L -24.6066,-53.8513 L -24.9679,-53.8057 z
M 24.9679,-3.50572 L 24.6066,-3.55136 L 24.2538,-3.64194 L 23.9152,-3.776 L 23.5961,-3.95145 L 23.3015,-4.16551
 L 23.036,-4.41481 L 22.8038,-4.69542 L 22.6087,-5.00291 L 22.4536,-5.33243 L 22.3411,-5.67879 L 22.2729,-6.03653
 L 22.25,-6.39999 L 22.2729,-6.76346 L 22.3411,-7.1212 L 22.4536,-7.46756 L 22.6087,-7.79709 L 22.8038,-8.10457
 L 23.036,-8.38518 L 23.3015,-8.63449 L 23.5961,-8.84854 L 23.9152,-9.02399 L 24.2538,-9.15807 L 24.6066,-9.24863
 L 24.9679,-9.29427 L 25.3321,-9.29427 L 25.6934,-9.24863 L 26.0461,-9.15807 L 26.3848,-9.02399 L 26.7039,-8.84854
 L 26.9985,-8.63449 L 27.264,-8.38518 L 27.4961,-8.10457 L 27.6913,-7.79709 L 27.8463,-7.46756 L 27.9589,-7.1212
 L 28.0271,-6.76346 L 28.05,-6.39999 L 28.0271,-6.03653 L 27.9589,-5.67879 L 27.8463,-5.33243 L 27.6913,-5.00291
 L 27.4961,-4.69542 L 27.264,-4.41481 L 26.9985,-4.16551 L 26.7039,-3.95145 L 26.3848,-3.776 L 26.0461,-3.64194
 L 25.6934,-3.55136 L 25.3321,-3.50572 z
M -25.3321,-3.50572 L -25.6934,-3.55136 L -26.0461,-3.64194 L -26.3848,-3.776 L -26.7039,-3.95145 L -26.9985,-4.16551
 L -27.264,-4.41481 L -27.4961,-4.69542 L -27.6913,-5.00291 L -27.8463,-5.33243 L -27.9589,-5.67879 L -28.0271,-6.03653
 L -28.05,-6.39999 L -28.0271,-6.76346 L -27.9589,-7.1212 L -27.8463,-7.46756 L -27.6913,-7.79709 L -27.4961,-8.10457
 L -27.264,-8.38518 L -26.9985,-8.63449 L -26.7039,-8.84854 L -26.3848,-9.02399 L -26.0461,-9.15807 L -25.6934,-9.24863
 L -25.3321,-9.29427 L -24.9679,-9.29427 L -24.6066,-9.24863 L -24.2538,-9.15807 L -23.9152,-9.02399 L -23.5961,-8.84854
 L -23.3015,-8.63449 L -23.036,-8.38518 L -22.8038,-8.10457 L -22.6087,-7.79709 L -22.4536,-7.46756 L -22.3411,-7.1212
 L -22.2729,-6.76346 L -22.25,-6.39999 L -22.2729,-6.03653 L -22.3411,-5.67879 L -22.4536,-5.33243 L -22.6087,-5.00291
 L -22.8038,-4.69542 L -23.036,-4.41481 L -23.3015,-4.16551 L -23.5961,-3.95145 L -23.9152,-3.776 L -24.2538,-3.64194
 L -24.6066,-3.55136 L -24.9679,-3.50572 z
M 80.4058,-5.00294 L 80.2189,-5.02657 L 80.0365,-5.07341 L 79.8613,-5.14275 L 79.6963,-5.23351 L 79.5439,-5.34422
 L 79.4065,-5.47318 L 79.2865,-5.61832 L 79.1855,-5.77736 L 79.1053,-5.9478 L 79.0471,-6.12695 L 79.0118,-6.312
 L 79,-6.5 L 79.0118,-6.68799 L 79.0471,-6.87303 L 79.1053,-7.05219 L 79.1855,-7.22263 L 79.2865,-7.38167
 L 79.4065,-7.52681 L 79.5439,-7.65576 L 79.6963,-7.76648 L 79.8613,-7.85724 L 80.0365,-7.92657 L 80.2189,-7.97342
 L 80.4058,-7.99704 L 80.5942,-7.99704 L 80.7811,-7.97342 L 80.9635,-7.92657 L 81.1387,-7.85724 L 81.3037,-7.76648
 L 81.4561,-7.65576 L 81.5934,-7.52681 L 81.7135,-7.38167 L 81.8145,-7.22263 L 81.8947,-7.05219 L 81.9529,-6.87303
 L 81.9882,-6.68799 L 82,-6.5 L 81.9882,-6.312 L 81.9529,-6.12695 L 81.8947,-5.9478 L 81.8145,-5.77736
 L 81.7135,-5.61832 L 81.5934,-5.47318 L 81.4561,-5.34422 L 81.3037,-5.23351 L 81.1387,-5.14275 L 80.9635,-5.07341
 L 80.7811,-5.02657 L 80.5942,-5.00294 z
M -80.5942,-5.00294 L -80.7811,-5.02657 L -80.9635,-5.07341 L -81.1387,-5.14275 L -81.3037,-5.23351 L -81.4561,-5.34422
 L -81.5934,-5.47318 L -81.7135,-5.61832 L -81.8145,-5.77736 L -81.8947,-5.9478 L -81.9529,-6.12695 L -81.9882,-6.312
 L -82,-6.5 L -81.9882,-6.68799 L -81.9529,-6.87303 L -81.8947,-7.05219 L -81.8145,-7.22263 L -81.7135,-7.38167
 L -81.5934,-7.52681 L -81.4561,-7.65576 L -81.3037,-7.76648 L -81.1387,-7.85724 L -80.9635,-7.92657 L -80.7811,-7.97342
 L -80.5942,-7.99704 L -80.4058,-7.99704 L -80.2189,-7.97342 L -80.0365,-7.92657 L -79.8613,-7.85724 L -79.6963,-7.76648
 L -79.5439,-7.65576 L -79.4065,-7.52681 L -79.2865,-7.38167 L -79.1855,-7.22263 L -79.1053,-7.05219 L -79.0471,-6.87303
 L -79.0118,-6.68799 L -79,-6.5 L -79.0118,-6.312 L -79.0471,-6.12695 L -79.1053,-5.9478 L -79.1855,-5.77736
 L -79.2865,-5.61832 L -79.4065,-5.47318 L -79.5439,-5.34422 L -79.6963,-5.23351 L -79.8613,-5.14275 L -80.0365,-5.07341
 L -80.2189,-5.02657 L -80.4058,-5.00294 z
" stroke="black" fill="lightgray" stroke-width="0.5"/>
</svg>
