  0
SECTION
  2
BLOCKS
  0
ENDSEC
  0
SECTION
  2
ENTITIES
  0
LINE
  8
0
 10
101
 20
56
 11
92.495
 21
56
  0
LINE
  8
0
 10
92.495
 20
56
 11
92.495
 21
96
  0
LINE
  8
0
 10
92.495
 20
96
 11
101
 21
96
  0
LINE
  8
0
 10
101
 20
96
 11
101
 21
144
  0
LINE
  8
0
 10
101
 20
144
 11
101.103
 21
144
  0
LINE
  8
0
 10
101.103
 20
144
 11
95.8565
 21
147.606
  0
LINE
  8
0
 10
95.8565
 20
147.606
 11
88
 21
152.42
  0
LINE
  8
0
 10
88
 20
152.42
 11
79.9023
 21
156.817
  0
LINE
  8
0
 10
79.9023
 20
156.817
 11
71.5856
 21
160.784
  0
LINE
  8
0
 10
71.5856
 20
160.784
 11
63.0728
 21
164.31
  0
LINE
  8
0
 10
63.0728
 20
164.31
 11
54.387
 21
167.386
  0
LINE
  8
0
 10
54.387
 20
167.386
 11
45.5521
 21
170.003
  0
LINE
  8
0
 10
45.5521
 20
170.003
 11
36.5925
 21
172.154
  0
LINE
  8
0
 10
36.5925
 20
172.154
 11
27.5325
 21
173.833
  0
LINE
  8
0
 10
27.5325
 20
173.833
 11
18.397
 21
175.036
  0
LINE
  8
0
 10
18.397
 20
175.036
 11
9.21112
 21
175.759
  0
LINE
  8
0
 10
9.21112
 20
175.759
 11
0
 21
176
  0
LINE
  8
0
 10
0
 20
176
 11
-9.21112
 21
175.759
  0
LINE
  8
0
 10
-9.21112
 20
175.759
 11
-18.397
 21
175.036
  0
LINE
  8
0
 10
-18.397
 20
175.036
 11
-27.5325
 21
173.833
  0
LINE
  8
0
 10
-27.5325
 20
173.833
 11
-36.5925
 21
172.154
  0
LINE
  8
0
 10
-36.5925
 20
172.154
 11
-45.5521
 21
170.003
  0
LINE
  8
0
 10
-45.5521
 20
170.003
 11
-54.387
 21
167.386
  0
LINE
  8
0
 10
-54.387
 20
167.386
 11
-63.0728
 21
164.31
  0
LINE
  8
0
 10
-63.0728
 20
164.31
 11
-71.5856
 21
160.784
  0
LINE
  8
0
 10
-71.5856
 20
160.784
 11
-79.9023
 21
156.817
  0
LINE
  8
0
 10
-79.9023
 20
156.817
 11
-88
 21
152.42
  0
LINE
  8
0
 10
-88
 20
152.42
 11
-95.8565
 21
147.606
  0
LINE
  8
0
 10
-95.8565
 20
147.606
 11
-101.103
 21
144
  0
LINE
  8
0
 10
-101.103
 20
144
 11
-101
 21
144
  0
LINE
  8
0
 10
-101
 20
144
 11
-101
 21
95.7
  0
LINE
  8
0
 10
-101
 20
95.7
 11
-92.495
 21
95.7
  0
LINE
  8
0
 10
-92.495
 20
95.7
 11
-92.495
 21
17.7
  0
LINE
  8
0
 10
-92.495
 20
17.7
 11
-101
 21
17.7
  0
LINE
  8
0
 10
-101
 20
17.7
 11
-101
 21
0
  0
LINE
  8
0
 10
-101
 20
0
 11
101
 21
0
  0
LINE
  8
0
 10
101
 20
0
 11
101
 21
56
  0
LINE
  8
0
 10
26.8679
 20
158.906
 11
26.5066
 21
158.951
  0
LINE
  8
0
 10
26.5066
 20
158.951
 11
26.1538
 21
159.042
  0
LINE
  8
0
 10
26.1538
 20
159.042
 11
25.8152
 21
159.176
  0
LINE
  8
0
 10
25.8152
 20
159.176
 11
25.4961
 21
159.351
  0
LINE
  8
0
 10
25.4961
 20
159.351
 11
25.2015
 21
159.566
  0
LINE
  8
0
 10
25.2015
 20
159.566
 11
24.936
 21
159.815
  0
LINE
  8
0
 10
24.936
 20
159.815
 11
24.7038
 21
160.095
  0
LINE
  8
0
 10
24.7038
 20
160.095
 11
24.5087
 21
160.403
  0
LINE
  8
0
 10
24.5087
 20
160.403
 11
24.3536
 21
160.732
  0
LINE
  8
0
 10
24.3536
 20
160.732
 11
24.2411
 21
161.079
  0
LINE
  8
0
 10
24.2411
 20
161.079
 11
24.1729
 21
161.437
  0
LINE
  8
0
 10
24.1729
 20
161.437
 11
24.15
 21
161.8
  0
LINE
  8
0
 10
24.15
 20
161.8
 11
24.1729
 21
162.163
  0
LINE
  8
0
 10
24.1729
 20
162.163
 11
24.2411
 21
162.521
  0
LINE
  8
0
 10
24.2411
 20
162.521
 11
24.3536
 21
162.868
  0
LINE
  8
0
 10
24.3536
 20
162.868
 11
24.5087
 21
163.197
  0
LINE
  8
0
 10
24.5087
 20
163.197
 11
24.7038
 21
163.505
  0
LINE
  8
0
 10
24.7038
 20
163.505
 11
24.936
 21
163.785
  0
LINE
  8
0
 10
24.936
 20
163.785
 11
25.2015
 21
164.034
  0
LINE
  8
0
 10
25.2015
 20
164.034
 11
25.4961
 21
164.249
  0
LINE
  8
0
 10
25.4961
 20
164.249
 11
25.8152
 21
164.424
  0
LINE
  8
0
 10
25.8152
 20
164.424
 11
26.1538
 21
164.558
  0
LINE
  8
0
 10
26.1538
 20
164.558
 11
26.5066
 21
164.649
  0
LINE
  8
0
 10
26.5066
 20
164.649
 11
26.8679
 21
164.694
  0
LINE
  8
0
 10
26.8679
 20
164.694
 11
27.2321
 21
164.694
  0
LINE
  8
0
 10
27.2321
 20
164.694
 11
27.5934
 21
164.649
  0
LINE
  8
0
 10
27.5934
 20
164.649
 11
27.9461
 21
164.558
  0
LINE
  8
0
 10
27.9461
 20
164.558
 11
28.2848
 21
164.424
  0
LINE
  8
0
 10
28.2848
 20
164.424
 11
28.6039
 21
164.249
  0
LINE
  8
0
 10
28.6039
 20
164.249
 11
28.8985
 21
164.034
  0
LINE
  8
0
 10
28.8985
 20
164.034
 11
29.164
 21
163.785
  0
LINE
  8
0
 10
29.164
 20
163.785
 11
29.3961
 21
163.505
  0
LINE
  8
0
 10
29.3961
 20
163.505
 11
29.5913
 21
163.197
  0
LINE
  8
0
 10
29.5913
 20
163.197
 11
29.7463
 21
162.868
  0
LINE
  8
0
 10
29.7463
 20
162.868
 11
29.8589
 21
162.521
  0
LINE
  8
0
 10
29.8589
 20
162.521
 11
29.9271
 21
162.163
  0
LINE
  8
0
 10
29.9271
 20
162.163
 11
29.95
 21
161.8
  0
LINE
  8
0
 10
29.95
 20
161.8
 11
29.9271
 21
161.437
  0
LINE
  8
0
 10
29.9271
 20
161.437
 11
29.8589
 21
161.079
  0
LINE
  8
0
 10
29.8589
 20
161.079
 11
29.7463
 21
160.732
  0
LINE
  8
0
 10
29.7463
 20
160.732
 11
29.5913
 21
160.403
  0
LINE
  8
0
 10
29.5913
 20
160.403
 11
29.3961
 21
160.095
  0
LINE
  8
0
 10
29.3961
 20
160.095
 11
29.164
 21
159.815
  0
LINE
  8
0
 10
29.164
 20
159.815
 11
28.8985
 21
159.566
  0
LINE
  8
0
 10
28.8985
 20
159.566
 11
28.6039
 21
159.351
  0
LINE
  8
0
 10
28.6039
 20
159.351
 11
28.2848
 21
159.176
  0
LINE
  8
0
 10
28.2848
 20
159.176
 11
27.9461
 21
159.042
  0
LINE
  8
0
 10
27.9461
 20
159.042
 11
27.5934
 21
158.951
  0
LINE
  8
0
 10
27.5934
 20
158.951
 11
27.2321
 21
158.906
  0
LINE
  8
0
 10
27.2321
 20
158.906
 11
26.8679
 21
158.906
  0
LINE
  8
0
 10
-27.2321
 20
158.906
 11
-27.5934
 21
158.951
  0
LINE
  8
0
 10
-27.5934
 20
158.951
 11
-27.9461
 21
159.042
  0
LINE
  8
0
 10
-27.9461
 20
159.042
 11
-28.2848
 21
159.176
  0
LINE
  8
0
 10
-28.2848
 20
159.176
 11
-28.6039
 21
159.351
  0
LINE
  8
0
 10
-28.6039
 20
159.351
 11
-28.8985
 21
159.566
  0
LINE
  8
0
 10
-28.8985
 20
159.566
 11
-29.164
 21
159.815
  0
LINE
  8
0
 10
-29.164
 20
159.815
 11
-29.3961
 21
160.095
  0
LINE
  8
0
 10
-29.3961
 20
160.095
 11
-29.5913
 21
160.403
  0
LINE
  8
0
 10
-29.5913
 20
160.403
 11
-29.7463
 21
160.732
  0
LINE
  8
0
 10
-29.7463
 20
160.732
 11
-29.8589
 21
161.079
  0
LINE
  8
0
 10
-29.8589
 20
161.079
 11
-29.9271
 21
161.437
  0
LINE
  8
0
 10
-29.9271
 20
161.437
 11
-29.95
 21
161.8
  0
LINE
  8
0
 10
-29.95
 20
161.8
 11
-29.9271
 21
162.163
  0
LINE
  8
0
 10
-29.9271
 20
162.163
 11
-29.8589
 21
162.521
  0
LINE
  8
0
 10
-29.8589
 20
162.521
 11
-29.7463
 21
162.868
  0
LINE
  8
0
 10
-29.7463
 20
162.868
 11
-29.5913
 21
163.197
  0
LINE
  8
0
 10
-29.5913
 20
163.197
 11
-29.3961
 21
163.505
  0
LINE
  8
0
 10
-29.3961
 20
163.505
 11
-29.164
 21
163.785
  0
LINE
  8
0
 10
-29.164
 20
163.785
 11
-28.8985
 21
164.034
  0
LINE
  8
0
 10
-28.8985
 20
164.034
 11
-28.6039
 21
164.249
  0
LINE
  8
0
 10
-28.6039
 20
164.249
 11
-28.2848
 21
164.424
  0
LINE
  8
0
 10
-28.2848
 20
164.424
 11
-27.9461
 21
164.558
  0
LINE
  8
0
 10
-27.9461
 20
164.558
 11
-27.5934
 21
164.649
  0
LINE
  8
0
 10
-27.5934
 20
164.649
 11
-27.2321
 21
164.694
  0
LINE
  8
0
 10
-27.2321
 20
164.694
 11
-26.8679
 21
164.694
  0
LINE
  8
0
 10
-26.8679
 20
164.694
 11
-26.5066
 21
164.649
  0
LINE
  8
0
 10
-26.5066
 20
164.649
 11
-26.1538
 21
164.558
  0
LINE
  8
0
 10
-26.1538
 20
164.558
 11
-25.8152
 21
164.424
  0
LINE
  8
0
 10
-25.8152
 20
164.424
 11
-25.4961
 21
164.249
  0
LINE
  8
0
 10
-25.4961
 20
164.249
 11
-25.2015
 21
164.034
  0
LINE
  8
0
 10
-25.2015
 20
164.034
 11
-24.936
 21
163.785
  0
LINE
  8
0
 10
-24.936
 20
163.785
 11
-24.7038
 21
163.505
  0
LINE
  8
0
 10
-24.7038
 20
163.505
 11
-24.5087
 21
163.197
  0
LINE
  8
0
 10
-24.5087
 20
163.197
 11
-24.3536
 21
162.868
  0
LINE
  8
0
 10
-24.3536
 20
162.868
 11
-24.2411
 21
162.521
  0
LINE
  8
0
 10
-24.2411
 20
162.521
 11
-24.1729
 21
162.163
  0
LINE
  8
0
 10
-24.1729
 20
162.163
 11
-24.15
 21
161.8
  0
LINE
  8
0
 10
-24.15
 20
161.8
 11
-24.1729
 21
161.437
  0
LINE
  8
0
 10
-24.1729
 20
161.437
 11
-24.2411
 21
161.079
  0
LINE
  8
0
 10
-24.2411
 20
161.079
 11
-24.3536
 21
160.732
  0
LINE
  8
0
 10
-24.3536
 20
160.732
 11
-24.5087
 21
160.403
  0
LINE
  8
0
 10
-24.5087
 20
160.403
 11
-24.7038
 21
160.095
  0
LINE
  8
0
 10
-24.7038
 20
160.095
 11
-24.936
 21
159.815
  0
LINE
  8
0
 10
-24.936
 20
159.815
 11
-25.2015
 21
159.566
  0
LINE
  8
0
 10
-25.2015
 20
159.566
 11
-25.4961
 21
159.351
  0
LINE
  8
0
 10
-25.4961
 20
159.351
 11
-25.8152
 21
159.176
  0
LINE
  8
0
 10
-25.8152
 20
159.176
 11
-26.1538
 21
159.042
  0
LINE
  8
0
 10
-26.1538
 20
159.042
 11
-26.5066
 21
158.951
  0
LINE
  8
0
 10
-26.5066
 20
158.951
 11
-26.8679
 21
158.906
  0
LINE
  8
0
 10
-26.8679
 20
158.906
 11
-27.2321
 21
158.906
  0
LINE
  8
0
 10
73.8215
 20
143.002
 11
73.7432
 21
143.008
  0
LINE
  8
0
 10
73.7432
 20
143.008
 11
73.6653
 21
143.018
  0
LINE
  8
0
 10
73.6653
 20
143.018
 11
73.5881
 21
143.033
  0
LINE
  8
0
 10
73.5881
 20
143.033
 11
73.5118
 21
143.051
  0
LINE
  8
0
 10
73.5118
 20
143.051
 11
73.4365
 21
143.073
  0
LINE
  8
0
 10
73.4365
 20
143.073
 11
73.3624
 21
143.1
  0
LINE
  8
0
 10
73.3624
 20
143.1
 11
73.2899
 21
143.13
  0
LINE
  8
0
 10
73.2899
 20
143.13
 11
73.219
 21
143.163
  0
LINE
  8
0
 10
73.219
 20
143.163
 11
73.15
 21
143.201
  0
LINE
  8
0
 10
73.15
 20
143.201
 11
73.083
 21
143.242
  0
LINE
  8
0
 10
73.083
 20
143.242
 11
73.0183
 21
143.286
  0
LINE
  8
0
 10
73.0183
 20
143.286
 11
72.956
 21
143.334
  0
LINE
  8
0
 10
72.956
 20
143.334
 11
72.8963
 21
143.385
  0
LINE
  8
0
 10
72.8963
 20
143.385
 11
72.8393
 21
143.439
  0
LINE
  8
0
 10
72.8393
 20
143.439
 11
72.7853
 21
143.496
  0
LINE
  8
0
 10
72.7853
 20
143.496
 11
72.7343
 21
143.556
  0
LINE
  8
0
 10
72.7343
 20
143.556
 11
72.6865
 21
143.618
  0
LINE
  8
0
 10
72.6865
 20
143.618
 11
72.642
 21
143.683
  0
LINE
  8
0
 10
72.642
 20
143.683
 11
72.601
 21
143.75
  0
LINE
  8
0
 10
72.601
 20
143.75
 11
72.5635
 21
143.819
  0
LINE
  8
0
 10
72.5635
 20
143.819
 11
72.5297
 21
143.89
  0
LINE
  8
0
 10
72.5297
 20
143.89
 11
72.4996
 21
143.962
  0
LINE
  8
0
 10
72.4996
 20
143.962
 11
72.4734
 21
144.036
  0
LINE
  8
0
 10
72.4734
 20
144.036
 11
72.4511
 21
144.112
  0
LINE
  8
0
 10
72.4511
 20
144.112
 11
72.4328
 21
144.188
  0
LINE
  8
0
 10
72.4328
 20
144.188
 11
72.4185
 21
144.265
  0
LINE
  8
0
 10
72.4185
 20
144.265
 11
72.4082
 21
144.343
  0
LINE
  8
0
 10
72.4082
 20
144.343
 11
72.4021
 21
144.421
  0
LINE
  8
0
 10
72.4021
 20
144.421
 11
72.4
 21
144.5
  0
LINE
  8
0
 10
72.4
 20
144.5
 11
72.4021
 21
144.578
  0
LINE
  8
0
 10
72.4021
 20
144.578
 11
72.4082
 21
144.657
  0
LINE
  8
0
 10
72.4082
 20
144.657
 11
72.4185
 21
144.735
  0
LINE
  8
0
 10
72.4185
 20
144.735
 11
72.4328
 21
144.812
  0
LINE
  8
0
 10
72.4328
 20
144.812
 11
72.4511
 21
144.888
  0
LINE
  8
0
 10
72.4511
 20
144.888
 11
72.4734
 21
144.964
  0
LINE
  8
0
 10
72.4734
 20
144.964
 11
72.4996
 21
145.038
  0
LINE
  8
0
 10
72.4996
 20
145.038
 11
72.5297
 21
145.11
  0
LINE
  8
0
 10
72.5297
 20
145.11
 11
72.5635
 21
145.181
  0
LINE
  8
0
 10
72.5635
 20
145.181
 11
72.601
 21
145.25
  0
LINE
  8
0
 10
72.601
 20
145.25
 11
72.642
 21
145.317
  0
LINE
  8
0
 10
72.642
 20
145.317
 11
72.6865
 21
145.382
  0
LINE
  8
0
 10
72.6865
 20
145.382
 11
72.7343
 21
145.444
  0
LINE
  8
0
 10
72.7343
 20
145.444
 11
72.7853
 21
145.504
  0
LINE
  8
0
 10
72.7853
 20
145.504
 11
72.8393
 21
145.561
  0
LINE
  8
0
 10
72.8393
 20
145.561
 11
72.8963
 21
145.615
  0
LINE
  8
0
 10
72.8963
 20
145.615
 11
72.956
 21
145.666
  0
LINE
  8
0
 10
72.956
 20
145.666
 11
73.0183
 21
145.714
  0
LINE
  8
0
 10
73.0183
 20
145.714
 11
73.083
 21
145.758
  0
LINE
  8
0
 10
73.083
 20
145.758
 11
73.15
 21
145.799
  0
LINE
  8
0
 10
73.15
 20
145.799
 11
73.219
 21
145.837
  0
LINE
  8
0
 10
73.219
 20
145.837
 11
73.2899
 21
145.87
  0
LINE
  8
0
 10
73.2899
 20
145.87
 11
73.3624
 21
145.9
  0
LINE
  8
0
 10
73.3624
 20
145.9
 11
73.4365
 21
145.927
  0
LINE
  8
0
 10
73.4365
 20
145.927
 11
73.5118
 21
145.949
  0
LINE
  8
0
 10
73.5118
 20
145.949
 11
73.5881
 21
145.967
  0
LINE
  8
0
 10
73.5881
 20
145.967
 11
73.6653
 21
145.982
  0
LINE
  8
0
 10
73.6653
 20
145.982
 11
73.7432
 21
145.992
  0
LINE
  8
0
 10
73.7432
 20
145.992
 11
73.8215
 21
145.998
  0
LINE
  8
0
 10
73.8215
 20
145.998
 11
73.9
 21
146
  0
LINE
  8
0
 10
73.9
 20
146
 11
73.9785
 21
145.998
  0
LINE
  8
0
 10
73.9785
 20
145.998
 11
74.0568
 21
145.992
  0
LINE
  8
0
 10
74.0568
 20
145.992
 11
74.1346
 21
145.982
  0
LINE
  8
0
 10
74.1346
 20
145.982
 11
74.2119
 21
145.967
  0
LINE
  8
0
 10
74.2119
 20
145.967
 11
74.2882
 21
145.949
  0
LINE
  8
0
 10
74.2882
 20
145.949
 11
74.3635
 21
145.927
  0
LINE
  8
0
 10
74.3635
 20
145.927
 11
74.4375
 21
145.9
  0
LINE
  8
0
 10
74.4375
 20
145.9
 11
74.5101
 21
145.87
  0
LINE
  8
0
 10
74.5101
 20
145.87
 11
74.581
 21
145.837
  0
LINE
  8
0
 10
74.581
 20
145.837
 11
74.65
 21
145.799
  0
LINE
  8
0
 10
74.65
 20
145.799
 11
74.7169
 21
145.758
  0
LINE
  8
0
 10
74.7169
 20
145.758
 11
74.7817
 21
145.714
  0
LINE
  8
0
 10
74.7817
 20
145.714
 11
74.844
 21
145.666
  0
LINE
  8
0
 10
74.844
 20
145.666
 11
74.9037
 21
145.615
  0
LINE
  8
0
 10
74.9037
 20
145.615
 11
74.9606
 21
145.561
  0
LINE
  8
0
 10
74.9606
 20
145.561
 11
75.0147
 21
145.504
  0
LINE
  8
0
 10
75.0147
 20
145.504
 11
75.0657
 21
145.444
  0
LINE
  8
0
 10
75.0657
 20
145.444
 11
75.1135
 21
145.382
  0
LINE
  8
0
 10
75.1135
 20
145.382
 11
75.158
 21
145.317
  0
LINE
  8
0
 10
75.158
 20
145.317
 11
75.199
 21
145.25
  0
LINE
  8
0
 10
75.199
 20
145.25
 11
75.2365
 21
145.181
  0
LINE
  8
0
 10
75.2365
 20
145.181
 11
75.2703
 21
145.11
  0
LINE
  8
0
 10
75.2703
 20
145.11
 11
75.3004
 21
145.038
  0
LINE
  8
0
 10
75.3004
 20
145.038
 11
75.3266
 21
144.964
  0
LINE
  8
0
 10
75.3266
 20
144.964
 11
75.3489
 21
144.888
  0
LINE
  8
0
 10
75.3489
 20
144.888
 11
75.3672
 21
144.812
  0
LINE
  8
0
 10
75.3672
 20
144.812
 11
75.3815
 21
144.735
  0
LINE
  8
0
 10
75.3815
 20
144.735
 11
75.3918
 21
144.657
  0
LINE
  8
0
 10
75.3918
 20
144.657
 11
75.3979
 21
144.578
  0
LINE
  8
0
 10
75.3979
 20
144.578
 11
75.4
 21
144.5
  0
LINE
  8
0
 10
75.4
 20
144.5
 11
75.3979
 21
144.421
  0
LINE
  8
0
 10
75.3979
 20
144.421
 11
75.3918
 21
144.343
  0
LINE
  8
0
 10
75.3918
 20
144.343
 11
75.3815
 21
144.265
  0
LINE
  8
0
 10
75.3815
 20
144.265
 11
75.3672
 21
144.188
  0
LINE
  8
0
 10
75.3672
 20
144.188
 11
75.3489
 21
144.112
  0
LINE
  8
0
 10
75.3489
 20
144.112
 11
75.3266
 21
144.036
  0
LINE
  8
0
 10
75.3266
 20
144.036
 11
75.3004
 21
143.962
  0
LINE
  8
0
 10
75.3004
 20
143.962
 11
75.2703
 21
143.89
  0
LINE
  8
0
 10
75.2703
 20
143.89
 11
75.2365
 21
143.819
  0
LINE
  8
0
 10
75.2365
 20
143.819
 11
75.199
 21
143.75
  0
LINE
  8
0
 10
75.199
 20
143.75
 11
75.158
 21
143.683
  0
LINE
  8
0
 10
75.158
 20
143.683
 11
75.1135
 21
143.618
  0
LINE
  8
0
 10
75.1135
 20
143.618
 11
75.0657
 21
143.556
  0
LINE
  8
0
 10
75.0657
 20
143.556
 11
75.0147
 21
143.496
  0
LINE
  8
0
 10
75.0147
 20
143.496
 11
74.9606
 21
143.439
  0
LINE
  8
0
 10
74.9606
 20
143.439
 11
74.9037
 21
143.385
  0
LINE
  8
0
 10
74.9037
 20
143.385
 11
74.844
 21
143.334
  0
LINE
  8
0
 10
74.844
 20
143.334
 11
74.7817
 21
143.286
  0
LINE
  8
0
 10
74.7817
 20
143.286
 11
74.7169
 21
143.242
  0
LINE
  8
0
 10
74.7169
 20
143.242
 11
74.65
 21
143.201
  0
LINE
  8
0
 10
74.65
 20
143.201
 11
74.581
 21
143.163
  0
LINE
  8
0
 10
74.581
 20
143.163
 11
74.5101
 21
143.13
  0
LINE
  8
0
 10
74.5101
 20
143.13
 11
74.4375
 21
143.1
  0
LINE
  8
0
 10
74.4375
 20
143.1
 11
74.3635
 21
143.073
  0
LINE
  8
0
 10
74.3635
 20
143.073
 11
74.2882
 21
143.051
  0
LINE
  8
0
 10
74.2882
 20
143.051
 11
74.2119
 21
143.033
  0
LINE
  8
0
 10
74.2119
 20
143.033
 11
74.1346
 21
143.018
  0
LINE
  8
0
 10
74.1346
 20
143.018
 11
74.0568
 21
143.008
  0
LINE
  8
0
 10
74.0568
 20
143.008
 11
73.9785
 21
143.002
  0
LINE
  8
0
 10
73.9785
 20
143.002
 11
73.9
 21
143
  0
LINE
  8
0
 10
73.9
 20
143
 11
73.8215
 21
143.002
  0
LINE
  8
0
 10
-0.0784912
 20
125.002
 11
-0.156784
 21
125.008
  0
LINE
  8
0
 10
-0.156784
 20
125.008
 11
-0.23465
 21
125.018
  0
LINE
  8
0
 10
-0.23465
 20
125.018
 11
-0.311859
 21
125.033
  0
LINE
  8
0
 10
-0.311859
 20
125.033
 11
-0.388214
 21
125.051
  0
LINE
  8
0
 10
-0.388214
 20
125.051
 11
-0.463516
 21
125.073
  0
LINE
  8
0
 10
-0.463516
 20
125.073
 11
-0.537552
 21
125.1
  0
LINE
  8
0
 10
-0.537552
 20
125.1
 11
-0.610092
 21
125.13
  0
LINE
  8
0
 10
-0.610092
 20
125.13
 11
-0.680984
 21
125.163
  0
LINE
  8
0
 10
-0.680984
 20
125.163
 11
-0.75
 21
125.201
  0
LINE
  8
0
 10
-0.75
 20
125.201
 11
-0.816956
 21
125.242
  0
LINE
  8
0
 10
-0.816956
 20
125.242
 11
-0.881668
 21
125.286
  0
LINE
  8
0
 10
-0.881668
 20
125.286
 11
-0.94397
 21
125.334
  0
LINE
  8
0
 10
-0.94397
 20
125.334
 11
-1.00369
 21
125.385
  0
LINE
  8
0
 10
-1.00369
 20
125.385
 11
-1.06065
 21
125.439
  0
LINE
  8
0
 10
-1.06065
 20
125.439
 11
-1.11472
 21
125.496
  0
LINE
  8
0
 10
-1.11472
 20
125.496
 11
-1.16571
 21
125.556
  0
LINE
  8
0
 10
-1.16571
 20
125.556
 11
-1.21352
 21
125.618
  0
LINE
  8
0
 10
-1.21352
 20
125.618
 11
-1.258
 21
125.683
  0
LINE
  8
0
 10
-1.258
 20
125.683
 11
-1.29903
 21
125.75
  0
LINE
  8
0
 10
-1.29903
 20
125.75
 11
-1.3365
 21
125.819
  0
LINE
  8
0
 10
-1.3365
 20
125.819
 11
-1.37032
 21
125.89
  0
LINE
  8
0
 10
-1.37032
 20
125.89
 11
-1.40036
 21
125.962
  0
LINE
  8
0
 10
-1.40036
 20
125.962
 11
-1.42657
 21
126.036
  0
LINE
  8
0
 10
-1.42657
 20
126.036
 11
-1.44888
 21
126.112
  0
LINE
  8
0
 10
-1.44888
 20
126.112
 11
-1.46721
 21
126.188
  0
LINE
  8
0
 10
-1.46721
 20
126.188
 11
-1.48152
 21
126.265
  0
LINE
  8
0
 10
-1.48152
 20
126.265
 11
-1.49178
 21
126.343
  0
LINE
  8
0
 10
-1.49178
 20
126.343
 11
-1.49794
 21
126.421
  0
LINE
  8
0
 10
-1.49794
 20
126.421
 11
-1.5
 21
126.5
  0
LINE
  8
0
 10
-1.5
 20
126.5
 11
-1.49794
 21
126.578
  0
LINE
  8
0
 10
-1.49794
 20
126.578
 11
-1.49178
 21
126.657
  0
LINE
  8
0
 10
-1.49178
 20
126.657
 11
-1.48152
 21
126.735
  0
LINE
  8
0
 10
-1.48152
 20
126.735
 11
-1.46721
 21
126.812
  0
LINE
  8
0
 10
-1.46721
 20
126.812
 11
-1.44888
 21
126.888
  0
LINE
  8
0
 10
-1.44888
 20
126.888
 11
-1.42657
 21
126.964
  0
LINE
  8
0
 10
-1.42657
 20
126.964
 11
-1.40036
 21
127.038
  0
LINE
  8
0
 10
-1.40036
 20
127.038
 11
-1.37032
 21
127.11
  0
LINE
  8
0
 10
-1.37032
 20
127.11
 11
-1.3365
 21
127.181
  0
LINE
  8
0
 10
-1.3365
 20
127.181
 11
-1.29903
 21
127.25
  0
LINE
  8
0
 10
-1.29903
 20
127.25
 11
-1.258
 21
127.317
  0
LINE
  8
0
 10
-1.258
 20
127.317
 11
-1.21352
 21
127.382
  0
LINE
  8
0
 10
-1.21352
 20
127.382
 11
-1.16571
 21
127.444
  0
LINE
  8
0
 10
-1.16571
 20
127.444
 11
-1.11472
 21
127.504
  0
LINE
  8
0
 10
-1.11472
 20
127.504
 11
-1.06065
 21
127.561
  0
LINE
  8
0
 10
-1.06065
 20
127.561
 11
-1.00369
 21
127.615
  0
LINE
  8
0
 10
-1.00369
 20
127.615
 11
-0.94397
 21
127.666
  0
LINE
  8
0
 10
-0.94397
 20
127.666
 11
-0.881668
 21
127.714
  0
LINE
  8
0
 10
-0.881668
 20
127.714
 11
-0.816956
 21
127.758
  0
LINE
  8
0
 10
-0.816956
 20
127.758
 11
-0.75
 21
127.799
  0
LINE
  8
0
 10
-0.75
 20
127.799
 11
-0.680984
 21
127.837
  0
LINE
  8
0
 10
-0.680984
 20
127.837
 11
-0.610092
 21
127.87
  0
LINE
  8
0
 10
-0.610092
 20
127.87
 11
-0.537552
 21
127.9
  0
LINE
  8
0
 10
-0.537552
 20
127.9
 11
-0.463516
 21
127.927
  0
LINE
  8
0
 10
-0.463516
 20
127.927
 11
-0.388214
 21
127.949
  0
LINE
  8
0
 10
-0.388214
 20
127.949
 11
-0.311859
 21
127.967
  0
LINE
  8
0
 10
-0.311859
 20
127.967
 11
-0.23465
 21
127.982
  0
LINE
  8
0
 10
-0.23465
 20
127.982
 11
-0.156784
 21
127.992
  0
LINE
  8
0
 10
-0.156784
 20
127.992
 11
-0.0784912
 21
127.998
  0
LINE
  8
0
 10
-0.0784912
 20
127.998
 11
0
 21
128
  0
LINE
  8
0
 10
0
 20
128
 11
0.0784912
 21
127.998
  0
LINE
  8
0
 10
0.0784912
 20
127.998
 11
0.156784
 21
127.992
  0
LINE
  8
0
 10
0.156784
 20
127.992
 11
0.23465
 21
127.982
  0
LINE
  8
0
 10
0.23465
 20
127.982
 11
0.311859
 21
127.967
  0
LINE
  8
0
 10
0.311859
 20
127.967
 11
0.388214
 21
127.949
  0
LINE
  8
0
 10
0.388214
 20
127.949
 11
0.463516
 21
127.927
  0
LINE
  8
0
 10
0.463516
 20
127.927
 11
0.537552
 21
127.9
  0
LINE
  8
0
 10
0.537552
 20
127.9
 11
0.610092
 21
127.87
  0
LINE
  8
0
 10
0.610092
 20
127.87
 11
0.680984
 21
127.837
  0
LINE
  8
0
 10
0.680984
 20
127.837
 11
0.75
 21
127.799
  0
LINE
  8
0
 10
0.75
 20
127.799
 11
0.816956
 21
127.758
  0
LINE
  8
0
 10
0.816956
 20
127.758
 11
0.881668
 21
127.714
  0
LINE
  8
0
 10
0.881668
 20
127.714
 11
0.94397
 21
127.666
  0
LINE
  8
0
 10
0.94397
 20
127.666
 11
1.00369
 21
127.615
  0
LINE
  8
0
 10
1.00369
 20
127.615
 11
1.06065
 21
127.561
  0
LINE
  8
0
 10
1.06065
 20
127.561
 11
1.11472
 21
127.504
  0
LINE
  8
0
 10
1.11472
 20
127.504
 11
1.16571
 21
127.444
  0
LINE
  8
0
 10
1.16571
 20
127.444
 11
1.21352
 21
127.382
  0
LINE
  8
0
 10
1.21352
 20
127.382
 11
1.258
 21
127.317
  0
LINE
  8
0
 10
1.258
 20
127.317
 11
1.29903
 21
127.25
  0
LINE
  8
0
 10
1.29903
 20
127.25
 11
1.3365
 21
127.181
  0
LINE
  8
0
 10
1.3365
 20
127.181
 11
1.37032
 21
127.11
  0
LINE
  8
0
 10
1.37032
 20
127.11
 11
1.40036
 21
127.038
  0
LINE
  8
0
 10
1.40036
 20
127.038
 11
1.42657
 21
126.964
  0
LINE
  8
0
 10
1.42657
 20
126.964
 11
1.44888
 21
126.888
  0
LINE
  8
0
 10
1.44888
 20
126.888
 11
1.46721
 21
126.812
  0
LINE
  8
0
 10
1.46721
 20
126.812
 11
1.48152
 21
126.735
  0
LINE
  8
0
 10
1.48152
 20
126.735
 11
1.49178
 21
126.657
  0
LINE
  8
0
 10
1.49178
 20
126.657
 11
1.49794
 21
126.578
  0
LINE
  8
0
 10
1.49794
 20
126.578
 11
1.5
 21
126.5
  0
LINE
  8
0
 10
1.5
 20
126.5
 11
1.49794
 21
126.421
  0
LINE
  8
0
 10
1.49794
 20
126.421
 11
1.49178
 21
126.343
  0
LINE
  8
0
 10
1.49178
 20
126.343
 11
1.48152
 21
126.265
  0
LINE
  8
0
 10
1.48152
 20
126.265
 11
1.46721
 21
126.188
  0
LINE
  8
0
 10
1.46721
 20
126.188
 11
1.44888
 21
126.112
  0
LINE
  8
0
 10
1.44888
 20
126.112
 11
1.42657
 21
126.036
  0
LINE
  8
0
 10
1.42657
 20
126.036
 11
1.40036
 21
125.962
  0
LINE
  8
0
 10
1.40036
 20
125.962
 11
1.37032
 21
125.89
  0
LINE
  8
0
 10
1.37032
 20
125.89
 11
1.3365
 21
125.819
  0
LINE
  8
0
 10
1.3365
 20
125.819
 11
1.29903
 21
125.75
  0
LINE
  8
0
 10
1.29903
 20
125.75
 11
1.258
 21
125.683
  0
LINE
  8
0
 10
1.258
 20
125.683
 11
1.21352
 21
125.618
  0
LINE
  8
0
 10
1.21352
 20
125.618
 11
1.16571
 21
125.556
  0
LINE
  8
0
 10
1.16571
 20
125.556
 11
1.11472
 21
125.496
  0
LINE
  8
0
 10
1.11472
 20
125.496
 11
1.06065
 21
125.439
  0
LINE
  8
0
 10
1.06065
 20
125.439
 11
1.00369
 21
125.385
  0
LINE
  8
0
 10
1.00369
 20
125.385
 11
0.94397
 21
125.334
  0
LINE
  8
0
 10
0.94397
 20
125.334
 11
0.881668
 21
125.286
  0
LINE
  8
0
 10
0.881668
 20
125.286
 11
0.816956
 21
125.242
  0
LINE
  8
0
 10
0.816956
 20
125.242
 11
0.75
 21
125.201
  0
LINE
  8
0
 10
0.75
 20
125.201
 11
0.680984
 21
125.163
  0
LINE
  8
0
 10
0.680984
 20
125.163
 11
0.610092
 21
125.13
  0
LINE
  8
0
 10
0.610092
 20
125.13
 11
0.537552
 21
125.1
  0
LINE
  8
0
 10
0.537552
 20
125.1
 11
0.463516
 21
125.073
  0
LINE
  8
0
 10
0.463516
 20
125.073
 11
0.388214
 21
125.051
  0
LINE
  8
0
 10
0.388214
 20
125.051
 11
0.311859
 21
125.033
  0
LINE
  8
0
 10
0.311859
 20
125.033
 11
0.23465
 21
125.018
  0
LINE
  8
0
 10
0.23465
 20
125.018
 11
0.156784
 21
125.008
  0
LINE
  8
0
 10
0.156784
 20
125.008
 11
0.0784912
 21
125.002
  0
LINE
  8
0
 10
0.0784912
 20
125.002
 11
0
 21
125
  0
LINE
  8
0
 10
0
 20
125
 11
-0.0784912
 21
125.002
  0
LINE
  8
0
 10
-92.4785
 20
113.002
 11
-92.5568
 21
113.008
  0
LINE
  8
0
 10
-92.5568
 20
113.008
 11
-92.6346
 21
113.018
  0
LINE
  8
0
 10
-92.6346
 20
113.018
 11
-92.7119
 21
113.033
  0
LINE
  8
0
 10
-92.7119
 20
113.033
 11
-92.7882
 21
113.051
  0
LINE
  8
0
 10
-92.7882
 20
113.051
 11
-92.8635
 21
113.073
  0
LINE
  8
0
 10
-92.8635
 20
113.073
 11
-92.9375
 21
113.1
  0
LINE
  8
0
 10
-92.9375
 20
113.1
 11
-93.0101
 21
113.13
  0
LINE
  8
0
 10
-93.0101
 20
113.13
 11
-93.081
 21
113.163
  0
LINE
  8
0
 10
-93.081
 20
113.163
 11
-93.15
 21
113.201
  0
LINE
  8
0
 10
-93.15
 20
113.201
 11
-93.2169
 21
113.242
  0
LINE
  8
0
 10
-93.2169
 20
113.242
 11
-93.2817
 21
113.286
  0
LINE
  8
0
 10
-93.2817
 20
113.286
 11
-93.344
 21
113.334
  0
LINE
  8
0
 10
-93.344
 20
113.334
 11
-93.4037
 21
113.385
  0
LINE
  8
0
 10
-93.4037
 20
113.385
 11
-93.4606
 21
113.439
  0
LINE
  8
0
 10
-93.4606
 20
113.439
 11
-93.5147
 21
113.496
  0
LINE
  8
0
 10
-93.5147
 20
113.496
 11
-93.5657
 21
113.556
  0
LINE
  8
0
 10
-93.5657
 20
113.556
 11
-93.6135
 21
113.618
  0
LINE
  8
0
 10
-93.6135
 20
113.618
 11
-93.658
 21
113.683
  0
LINE
  8
0
 10
-93.658
 20
113.683
 11
-93.699
 21
113.75
  0
LINE
  8
0
 10
-93.699
 20
113.75
 11
-93.7365
 21
113.819
  0
LINE
  8
0
 10
-93.7365
 20
113.819
 11
-93.7703
 21
113.89
  0
LINE
  8
0
 10
-93.7703
 20
113.89
 11
-93.8004
 21
113.962
  0
LINE
  8
0
 10
-93.8004
 20
113.962
 11
-93.8266
 21
114.036
  0
LINE
  8
0
 10
-93.8266
 20
114.036
 11
-93.8489
 21
114.112
  0
LINE
  8
0
 10
-93.8489
 20
114.112
 11
-93.8672
 21
114.188
  0
LINE
  8
0
 10
-93.8672
 20
114.188
 11
-93.8815
 21
114.265
  0
LINE
  8
0
 10
-93.8815
 20
114.265
 11
-93.8918
 21
114.343
  0
LINE
  8
0
 10
-93.8918
 20
114.343
 11
-93.8979
 21
114.421
  0
LINE
  8
0
 10
-93.8979
 20
114.421
 11
-93.9
 21
114.5
  0
LINE
  8
0
 10
-93.9
 20
114.5
 11
-93.8979
 21
114.578
  0
LINE
  8
0
 10
-93.8979
 20
114.578
 11
-93.8918
 21
114.657
  0
LINE
  8
0
 10
-93.8918
 20
114.657
 11
-93.8815
 21
114.735
  0
LINE
  8
0
 10
-93.8815
 20
114.735
 11
-93.8672
 21
114.812
  0
LINE
  8
0
 10
-93.8672
 20
114.812
 11
-93.8489
 21
114.888
  0
LINE
  8
0
 10
-93.8489
 20
114.888
 11
-93.8266
 21
114.964
  0
LINE
  8
0
 10
-93.8266
 20
114.964
 11
-93.8004
 21
115.038
  0
LINE
  8
0
 10
-93.8004
 20
115.038
 11
-93.7703
 21
115.11
  0
LINE
  8
0
 10
-93.7703
 20
115.11
 11
-93.7365
 21
115.181
  0
LINE
  8
0
 10
-93.7365
 20
115.181
 11
-93.699
 21
115.25
  0
LINE
  8
0
 10
-93.699
 20
115.25
 11
-93.658
 21
115.317
  0
LINE
  8
0
 10
-93.658
 20
115.317
 11
-93.6135
 21
115.382
  0
LINE
  8
0
 10
-93.6135
 20
115.382
 11
-93.5657
 21
115.444
  0
LINE
  8
0
 10
-93.5657
 20
115.444
 11
-93.5147
 21
115.504
  0
LINE
  8
0
 10
-93.5147
 20
115.504
 11
-93.4606
 21
115.561
  0
LINE
  8
0
 10
-93.4606
 20
115.561
 11
-93.4037
 21
115.615
  0
LINE
  8
0
 10
-93.4037
 20
115.615
 11
-93.344
 21
115.666
  0
LINE
  8
0
 10
-93.344
 20
115.666
 11
-93.2817
 21
115.714
  0
LINE
  8
0
 10
-93.2817
 20
115.714
 11
-93.2169
 21
115.758
  0
LINE
  8
0
 10
-93.2169
 20
115.758
 11
-93.15
 21
115.799
  0
LINE
  8
0
 10
-93.15
 20
115.799
 11
-93.081
 21
115.837
  0
LINE
  8
0
 10
-93.081
 20
115.837
 11
-93.0101
 21
115.87
  0
LINE
  8
0
 10
-93.0101
 20
115.87
 11
-92.9375
 21
115.9
  0
LINE
  8
0
 10
-92.9375
 20
115.9
 11
-92.8635
 21
115.927
  0
LINE
  8
0
 10
-92.8635
 20
115.927
 11
-92.7882
 21
115.949
  0
LINE
  8
0
 10
-92.7882
 20
115.949
 11
-92.7119
 21
115.967
  0
LINE
  8
0
 10
-92.7119
 20
115.967
 11
-92.6346
 21
115.982
  0
LINE
  8
0
 10
-92.6346
 20
115.982
 11
-92.5568
 21
115.992
  0
LINE
  8
0
 10
-92.5568
 20
115.992
 11
-92.4785
 21
115.998
  0
LINE
  8
0
 10
-92.4785
 20
115.998
 11
-92.4
 21
116
  0
LINE
  8
0
 10
-92.4
 20
116
 11
-92.3215
 21
115.998
  0
LINE
  8
0
 10
-92.3215
 20
115.998
 11
-92.2432
 21
115.992
  0
LINE
  8
0
 10
-92.2432
 20
115.992
 11
-92.1653
 21
115.982
  0
LINE
  8
0
 10
-92.1653
 20
115.982
 11
-92.0881
 21
115.967
  0
LINE
  8
0
 10
-92.0881
 20
115.967
 11
-92.0118
 21
115.949
  0
LINE
  8
0
 10
-92.0118
 20
115.949
 11
-91.9365
 21
115.927
  0
LINE
  8
0
 10
-91.9365
 20
115.927
 11
-91.8624
 21
115.9
  0
LINE
  8
0
 10
-91.8624
 20
115.9
 11
-91.7899
 21
115.87
  0
LINE
  8
0
 10
-91.7899
 20
115.87
 11
-91.719
 21
115.837
  0
LINE
  8
0
 10
-91.719
 20
115.837
 11
-91.65
 21
115.799
  0
LINE
  8
0
 10
-91.65
 20
115.799
 11
-91.583
 21
115.758
  0
LINE
  8
0
 10
-91.583
 20
115.758
 11
-91.5183
 21
115.714
  0
LINE
  8
0
 10
-91.5183
 20
115.714
 11
-91.456
 21
115.666
  0
LINE
  8
0
 10
-91.456
 20
115.666
 11
-91.3963
 21
115.615
  0
LINE
  8
0
 10
-91.3963
 20
115.615
 11
-91.3393
 21
115.561
  0
LINE
  8
0
 10
-91.3393
 20
115.561
 11
-91.2853
 21
115.504
  0
LINE
  8
0
 10
-91.2853
 20
115.504
 11
-91.2343
 21
115.444
  0
LINE
  8
0
 10
-91.2343
 20
115.444
 11
-91.1865
 21
115.382
  0
LINE
  8
0
 10
-91.1865
 20
115.382
 11
-91.142
 21
115.317
  0
LINE
  8
0
 10
-91.142
 20
115.317
 11
-91.101
 21
115.25
  0
LINE
  8
0
 10
-91.101
 20
115.25
 11
-91.0635
 21
115.181
  0
LINE
  8
0
 10
-91.0635
 20
115.181
 11
-91.0297
 21
115.11
  0
LINE
  8
0
 10
-91.0297
 20
115.11
 11
-90.9996
 21
115.038
  0
LINE
  8
0
 10
-90.9996
 20
115.038
 11
-90.9734
 21
114.964
  0
LINE
  8
0
 10
-90.9734
 20
114.964
 11
-90.9511
 21
114.888
  0
LINE
  8
0
 10
-90.9511
 20
114.888
 11
-90.9328
 21
114.812
  0
LINE
  8
0
 10
-90.9328
 20
114.812
 11
-90.9185
 21
114.735
  0
LINE
  8
0
 10
-90.9185
 20
114.735
 11
-90.9082
 21
114.657
  0
LINE
  8
0
 10
-90.9082
 20
114.657
 11
-90.9021
 21
114.578
  0
LINE
  8
0
 10
-90.9021
 20
114.578
 11
-90.9
 21
114.5
  0
LINE
  8
0
 10
-90.9
 20
114.5
 11
-90.9021
 21
114.421
  0
LINE
  8
0
 10
-90.9021
 20
114.421
 11
-90.9082
 21
114.343
  0
LINE
  8
0
 10
-90.9082
 20
114.343
 11
-90.9185
 21
114.265
  0
LINE
  8
0
 10
-90.9185
 20
114.265
 11
-90.9328
 21
114.188
  0
LINE
  8
0
 10
-90.9328
 20
114.188
 11
-90.9511
 21
114.112
  0
LINE
  8
0
 10
-90.9511
 20
114.112
 11
-90.9734
 21
114.036
  0
LINE
  8
0
 10
-90.9734
 20
114.036
 11
-90.9996
 21
113.962
  0
LINE
  8
0
 10
-90.9996
 20
113.962
 11
-91.0297
 21
113.89
  0
LINE
  8
0
 10
-91.0297
 20
113.89
 11
-91.0635
 21
113.819
  0
LINE
  8
0
 10
-91.0635
 20
113.819
 11
-91.101
 21
113.75
  0
LINE
  8
0
 10
-91.101
 20
113.75
 11
-91.142
 21
113.683
  0
LINE
  8
0
 10
-91.142
 20
113.683
 11
-91.1865
 21
113.618
  0
LINE
  8
0
 10
-91.1865
 20
113.618
 11
-91.2343
 21
113.556
  0
LINE
  8
0
 10
-91.2343
 20
113.556
 11
-91.2853
 21
113.496
  0
LINE
  8
0
 10
-91.2853
 20
113.496
 11
-91.3393
 21
113.439
  0
LINE
  8
0
 10
-91.3393
 20
113.439
 11
-91.3963
 21
113.385
  0
LINE
  8
0
 10
-91.3963
 20
113.385
 11
-91.456
 21
113.334
  0
LINE
  8
0
 10
-91.456
 20
113.334
 11
-91.5183
 21
113.286
  0
LINE
  8
0
 10
-91.5183
 20
113.286
 11
-91.583
 21
113.242
  0
LINE
  8
0
 10
-91.583
 20
113.242
 11
-91.65
 21
113.201
  0
LINE
  8
0
 10
-91.65
 20
113.201
 11
-91.719
 21
113.163
  0
LINE
  8
0
 10
-91.719
 20
113.163
 11
-91.7899
 21
113.13
  0
LINE
  8
0
 10
-91.7899
 20
113.13
 11
-91.8624
 21
113.1
  0
LINE
  8
0
 10
-91.8624
 20
113.1
 11
-91.9365
 21
113.073
  0
LINE
  8
0
 10
-91.9365
 20
113.073
 11
-92.0118
 21
113.051
  0
LINE
  8
0
 10
-92.0118
 20
113.051
 11
-92.0881
 21
113.033
  0
LINE
  8
0
 10
-92.0881
 20
113.033
 11
-92.1653
 21
113.018
  0
LINE
  8
0
 10
-92.1653
 20
113.018
 11
-92.2432
 21
113.008
  0
LINE
  8
0
 10
-92.2432
 20
113.008
 11
-92.3215
 21
113.002
  0
LINE
  8
0
 10
-92.3215
 20
113.002
 11
-92.4
 21
113
  0
LINE
  8
0
 10
-92.4
 20
113
 11
-92.4785
 21
113.002
  0
LINE
  8
0
 10
72.8179
 20
82.2057
 11
72.4566
 21
82.2514
  0
LINE
  8
0
 10
72.4566
 20
82.2514
 11
72.1038
 21
82.3419
  0
LINE
  8
0
 10
72.1038
 20
82.3419
 11
71.7652
 21
82.476
  0
LINE
  8
0
 10
71.7652
 20
82.476
 11
71.4461
 21
82.6514
  0
LINE
  8
0
 10
71.4461
 20
82.6514
 11
71.1515
 21
82.8655
  0
LINE
  8
0
 10
71.1515
 20
82.8655
 11
70.886
 21
83.1148
  0
LINE
  8
0
 10
70.886
 20
83.1148
 11
70.6538
 21
83.3954
  0
LINE
  8
0
 10
70.6538
 20
83.3954
 11
70.4587
 21
83.7029
  0
LINE
  8
0
 10
70.4587
 20
83.7029
 11
70.3036
 21
84.0324
  0
LINE
  8
0
 10
70.3036
 20
84.0324
 11
70.1911
 21
84.3788
  0
LINE
  8
0
 10
70.1911
 20
84.3788
 11
70.1229
 21
84.7365
  0
LINE
  8
0
 10
70.1229
 20
84.7365
 11
70.1
 21
85.1
  0
LINE
  8
0
 10
70.1
 20
85.1
 11
70.1229
 21
85.4635
  0
LINE
  8
0
 10
70.1229
 20
85.4635
 11
70.1911
 21
85.8212
  0
LINE
  8
0
 10
70.1911
 20
85.8212
 11
70.3036
 21
86.1676
  0
LINE
  8
0
 10
70.3036
 20
86.1676
 11
70.4587
 21
86.4971
  0
LINE
  8
0
 10
70.4587
 20
86.4971
 11
70.6538
 21
86.8046
  0
LINE
  8
0
 10
70.6538
 20
86.8046
 11
70.886
 21
87.0852
  0
LINE
  8
0
 10
70.886
 20
87.0852
 11
71.1515
 21
87.3345
  0
LINE
  8
0
 10
71.1515
 20
87.3345
 11
71.4461
 21
87.5485
  0
LINE
  8
0
 10
71.4461
 20
87.5485
 11
71.7652
 21
87.724
  0
LINE
  8
0
 10
71.7652
 20
87.724
 11
72.1038
 21
87.8581
  0
LINE
  8
0
 10
72.1038
 20
87.8581
 11
72.4566
 21
87.9486
  0
LINE
  8
0
 10
72.4566
 20
87.9486
 11
72.8179
 21
87.9943
  0
LINE
  8
0
 10
72.8179
 20
87.9943
 11
73.1821
 21
87.9943
  0
LINE
  8
0
 10
73.1821
 20
87.9943
 11
73.5434
 21
87.9486
  0
LINE
  8
0
 10
73.5434
 20
87.9486
 11
73.8961
 21
87.8581
  0
LINE
  8
0
 10
73.8961
 20
87.8581
 11
74.2348
 21
87.724
  0
LINE
  8
0
 10
74.2348
 20
87.724
 11
74.5539
 21
87.5485
  0
LINE
  8
0
 10
74.5539
 20
87.5485
 11
74.8485
 21
87.3345
  0
LINE
  8
0
 10
74.8485
 20
87.3345
 11
75.114
 21
87.0852
  0
LINE
  8
0
 10
75.114
 20
87.0852
 11
75.3461
 21
86.8046
  0
LINE
  8
0
 10
75.3461
 20
86.8046
 11
75.5413
 21
86.4971
  0
LINE
  8
0
 10
75.5413
 20
86.4971
 11
75.6964
 21
86.1676
  0
LINE
  8
0
 10
75.6964
 20
86.1676
 11
75.8089
 21
85.8212
  0
LINE
  8
0
 10
75.8089
 20
85.8212
 11
75.8771
 21
85.4635
  0
LINE
  8
0
 10
75.8771
 20
85.4635
 11
75.9
 21
85.1
  0
LINE
  8
0
 10
75.9
 20
85.1
 11
75.8771
 21
84.7365
  0
LINE
  8
0
 10
75.8771
 20
84.7365
 11
75.8089
 21
84.3788
  0
LINE
  8
0
 10
75.8089
 20
84.3788
 11
75.6964
 21
84.0324
  0
LINE
  8
0
 10
75.6964
 20
84.0324
 11
75.5413
 21
83.7029
  0
LINE
  8
0
 10
75.5413
 20
83.7029
 11
75.3461
 21
83.3954
  0
LINE
  8
0
 10
75.3461
 20
83.3954
 11
75.114
 21
83.1148
  0
LINE
  8
0
 10
75.114
 20
83.1148
 11
74.8485
 21
82.8655
  0
LINE
  8
0
 10
74.8485
 20
82.8655
 11
74.5539
 21
82.6514
  0
LINE
  8
0
 10
74.5539
 20
82.6514
 11
74.2348
 21
82.476
  0
LINE
  8
0
 10
74.2348
 20
82.476
 11
73.8961
 21
82.3419
  0
LINE
  8
0
 10
73.8961
 20
82.3419
 11
73.5434
 21
82.2514
  0
LINE
  8
0
 10
73.5434
 20
82.2514
 11
73.1821
 21
82.2057
  0
LINE
  8
0
 10
73.1821
 20
82.2057
 11
72.8179
 21
82.2057
  0
LINE
  8
0
 10
-73.1821
 20
82.2057
 11
-73.5434
 21
82.2514
  0
LINE
  8
0
 10
-73.5434
 20
82.2514
 11
-73.8961
 21
82.3419
  0
LINE
  8
0
 10
-73.8961
 20
82.3419
 11
-74.2348
 21
82.476
  0
LINE
  8
0
 10
-74.2348
 20
82.476
 11
-74.5539
 21
82.6514
  0
LINE
  8
0
 10
-74.5539
 20
82.6514
 11
-74.8485
 21
82.8655
  0
LINE
  8
0
 10
-74.8485
 20
82.8655
 11
-75.114
 21
83.1148
  0
LINE
  8
0
 10
-75.114
 20
83.1148
 11
-75.3461
 21
83.3954
  0
LINE
  8
0
 10
-75.3461
 20
83.3954
 11
-75.5413
 21
83.7029
  0
LINE
  8
0
 10
-75.5413
 20
83.7029
 11
-75.6964
 21
84.0324
  0
LINE
  8
0
 10
-75.6964
 20
84.0324
 11
-75.8089
 21
84.3788
  0
LINE
  8
0
 10
-75.8089
 20
84.3788
 11
-75.8771
 21
84.7365
  0
LINE
  8
0
 10
-75.8771
 20
84.7365
 11
-75.9
 21
85.1
  0
LINE
  8
0
 10
-75.9
 20
85.1
 11
-75.8771
 21
85.4635
  0
LINE
  8
0
 10
-75.8771
 20
85.4635
 11
-75.8089
 21
85.8212
  0
LINE
  8
0
 10
-75.8089
 20
85.8212
 11
-75.6964
 21
86.1676
  0
LINE
  8
0
 10
-75.6964
 20
86.1676
 11
-75.5413
 21
86.4971
  0
LINE
  8
0
 10
-75.5413
 20
86.4971
 11
-75.3461
 21
86.8046
  0
LINE
  8
0
 10
-75.3461
 20
86.8046
 11
-75.114
 21
87.0852
  0
LINE
  8
0
 10
-75.114
 20
87.0852
 11
-74.8485
 21
87.3345
  0
LINE
  8
0
 10
-74.8485
 20
87.3345
 11
-74.5539
 21
87.5485
  0
LINE
  8
0
 10
-74.5539
 20
87.5485
 11
-74.2348
 21
87.724
  0
LINE
  8
0
 10
-74.2348
 20
87.724
 11
-73.8961
 21
87.8581
  0
LINE
  8
0
 10
-73.8961
 20
87.8581
 11
-73.5434
 21
87.9486
  0
LINE
  8
0
 10
-73.5434
 20
87.9486
 11
-73.1821
 21
87.9943
  0
LINE
  8
0
 10
-73.1821
 20
87.9943
 11
-72.8179
 21
87.9943
  0
LINE
  8
0
 10
-72.8179
 20
87.9943
 11
-72.4566
 21
87.9486
  0
LINE
  8
0
 10
-72.4566
 20
87.9486
 11
-72.1038
 21
87.8581
  0
LINE
  8
0
 10
-72.1038
 20
87.8581
 11
-71.7652
 21
87.724
  0
LINE
  8
0
 10
-71.7652
 20
87.724
 11
-71.4461
 21
87.5485
  0
LINE
  8
0
 10
-71.4461
 20
87.5485
 11
-71.1515
 21
87.3345
  0
LINE
  8
0
 10
-71.1515
 20
87.3345
 11
-70.886
 21
87.0852
  0
LINE
  8
0
 10
-70.886
 20
87.0852
 11
-70.6538
 21
86.8046
  0
LINE
  8
0
 10
-70.6538
 20
86.8046
 11
-70.4587
 21
86.4971
  0
LINE
  8
0
 10
-70.4587
 20
86.4971
 11
-70.3036
 21
86.1676
  0
LINE
  8
0
 10
-70.3036
 20
86.1676
 11
-70.1911
 21
85.8212
  0
LINE
  8
0
 10
-70.1911
 20
85.8212
 11
-70.1229
 21
85.4635
  0
LINE
  8
0
 10
-70.1229
 20
85.4635
 11
-70.1
 21
85.1
  0
LINE
  8
0
 10
-70.1
 20
85.1
 11
-70.1229
 21
84.7365
  0
LINE
  8
0
 10
-70.1229
 20
84.7365
 11
-70.1911
 21
84.3788
  0
LINE
  8
0
 10
-70.1911
 20
84.3788
 11
-70.3036
 21
84.0324
  0
LINE
  8
0
 10
-70.3036
 20
84.0324
 11
-70.4587
 21
83.7029
  0
LINE
  8
0
 10
-70.4587
 20
83.7029
 11
-70.6538
 21
83.3954
  0
LINE
  8
0
 10
-70.6538
 20
83.3954
 11
-70.886
 21
83.1148
  0
LINE
  8
0
 10
-70.886
 20
83.1148
 11
-71.1515
 21
82.8655
  0
LINE
  8
0
 10
-71.1515
 20
82.8655
 11
-71.4461
 21
82.6514
  0
LINE
  8
0
 10
-71.4461
 20
82.6514
 11
-71.7652
 21
82.476
  0
LINE
  8
0
 10
-71.7652
 20
82.476
 11
-72.1038
 21
82.3419
  0
LINE
  8
0
 10
-72.1038
 20
82.3419
 11
-72.4566
 21
82.2514
  0
LINE
  8
0
 10
-72.4566
 20
82.2514
 11
-72.8179
 21
82.2057
  0
LINE
  8
0
 10
-72.8179
 20
82.2057
 11
-73.1821
 21
82.2057
  0
LINE
  8
0
 10
24.9679
 20
53.8057
 11
24.6066
 21
53.8513
  0
LINE
  8
0
 10
24.6066
 20
53.8513
 11
24.2538
 21
53.9419
  0
LINE
  8
0
 10
24.2538
 20
53.9419
 11
23.9152
 21
54.076
  0
LINE
  8
0
 10
23.9152
 20
54.076
 11
23.5961
 21
54.2514
  0
LINE
  8
0
 10
23.5961
 20
54.2514
 11
23.3015
 21
54.4655
  0
LINE
  8
0
 10
23.3015
 20
54.4655
 11
23.036
 21
54.7148
  0
LINE
  8
0
 10
23.036
 20
54.7148
 11
22.8038
 21
54.9954
  0
LINE
  8
0
 10
22.8038
 20
54.9954
 11
22.6087
 21
55.3029
  0
LINE
  8
0
 10
22.6087
 20
55.3029
 11
22.4536
 21
55.6324
  0
LINE
  8
0
 10
22.4536
 20
55.6324
 11
22.3411
 21
55.9788
  0
LINE
  8
0
 10
22.3411
 20
55.9788
 11
22.2729
 21
56.3365
  0
LINE
  8
0
 10
22.2729
 20
56.3365
 11
22.25
 21
56.7
  0
LINE
  8
0
 10
22.25
 20
56.7
 11
22.2729
 21
57.0634
  0
LINE
  8
0
 10
22.2729
 20
57.0634
 11
22.3411
 21
57.4212
  0
LINE
  8
0
 10
22.3411
 20
57.4212
 11
22.4536
 21
57.7675
  0
LINE
  8
0
 10
22.4536
 20
57.7675
 11
22.6087
 21
58.0971
  0
LINE
  8
0
 10
22.6087
 20
58.0971
 11
22.8038
 21
58.4046
  0
LINE
  8
0
 10
22.8038
 20
58.4046
 11
23.036
 21
58.6852
  0
LINE
  8
0
 10
23.036
 20
58.6852
 11
23.3015
 21
58.9345
  0
LINE
  8
0
 10
23.3015
 20
58.9345
 11
23.5961
 21
59.1485
  0
LINE
  8
0
 10
23.5961
 20
59.1485
 11
23.9152
 21
59.324
  0
LINE
  8
0
 10
23.9152
 20
59.324
 11
24.2538
 21
59.458
  0
LINE
  8
0
 10
24.2538
 20
59.458
 11
24.6066
 21
59.5486
  0
LINE
  8
0
 10
24.6066
 20
59.5486
 11
24.9679
 21
59.5943
  0
LINE
  8
0
 10
24.9679
 20
59.5943
 11
25.3321
 21
59.5943
  0
LINE
  8
0
 10
25.3321
 20
59.5943
 11
25.6934
 21
59.5486
  0
LINE
  8
0
 10
25.6934
 20
59.5486
 11
26.0461
 21
59.458
  0
LINE
  8
0
 10
26.0461
 20
59.458
 11
26.3848
 21
59.324
  0
LINE
  8
0
 10
26.3848
 20
59.324
 11
26.7039
 21
59.1485
  0
LINE
  8
0
 10
26.7039
 20
59.1485
 11
26.9985
 21
58.9345
  0
LINE
  8
0
 10
26.9985
 20
58.9345
 11
27.264
 21
58.6852
  0
LINE
  8
0
 10
27.264
 20
58.6852
 11
27.4961
 21
58.4046
  0
LINE
  8
0
 10
27.4961
 20
58.4046
 11
27.6913
 21
58.0971
  0
LINE
  8
0
 10
27.6913
 20
58.0971
 11
27.8463
 21
57.7675
  0
LINE
  8
0
 10
27.8463
 20
57.7675
 11
27.9589
 21
57.4212
  0
LINE
  8
0
 10
27.9589
 20
57.4212
 11
28.0271
 21
57.0634
  0
LINE
  8
0
 10
28.0271
 20
57.0634
 11
28.05
 21
56.7
  0
LINE
  8
0
 10
28.05
 20
56.7
 11
28.0271
 21
56.3365
  0
LINE
  8
0
 10
28.0271
 20
56.3365
 11
27.9589
 21
55.9788
  0
LINE
  8
0
 10
27.9589
 20
55.9788
 11
27.8463
 21
55.6324
  0
LINE
  8
0
 10
27.8463
 20
55.6324
 11
27.6913
 21
55.3029
  0
LINE
  8
0
 10
27.6913
 20
55.3029
 11
27.4961
 21
54.9954
  0
LINE
  8
0
 10
27.4961
 20
54.9954
 11
27.264
 21
54.7148
  0
LINE
  8
0
 10
27.264
 20
54.7148
 11
26.9985
 21
54.4655
  0
LINE
  8
0
 10
26.9985
 20
54.4655
 11
26.7039
 21
54.2514
  0
LINE
  8
0
 10
26.7039
 20
54.2514
 11
26.3848
 21
54.076
  0
LINE
  8
0
 10
26.3848
 20
54.076
 11
26.0461
 21
53.9419
  0
LINE
  8
0
 10
26.0461
 20
53.9419
 11
25.6934
 21
53.8513
  0
LINE
  8
0
 10
25.6934
 20
53.8513
 11
25.3321
 21
53.8057
  0
LINE
  8
0
 10
25.3321
 20
53.8057
 11
24.9679
 21
53.8057
  0
LINE
  8
0
 10
-25.3321
 20
53.8057
 11
-25.6934
 21
53.8513
  0
LINE
  8
0
 10
-25.6934
 20
53.8513
 11
-26.0461
 21
53.9419
  0
LINE
  8
0
 10
-26.0461
 20
53.9419
 11
-26.3848
 21
54.076
  0
LINE
  8
0
 10
-26.3848
 20
54.076
 11
-26.7039
 21
54.2514
  0
LINE
  8
0
 10
-26.7039
 20
54.2514
 11
-26.9985
 21
54.4655
  0
LINE
  8
0
 10
-26.9985
 20
54.4655
 11
-27.264
 21
54.7148
  0
LINE
  8
0
 10
-27.264
 20
54.7148
 11
-27.4961
 21
54.9954
  0
LINE
  8
0
 10
-27.4961
 20
54.9954
 11
-27.6913
 21
55.3029
  0
LINE
  8
0
 10
-27.6913
 20
55.3029
 11
-27.8463
 21
55.6324
  0
LINE
  8
0
 10
-27.8463
 20
55.6324
 11
-27.9589
 21
55.9788
  0
LINE
  8
0
 10
-27.9589
 20
55.9788
 11
-28.0271
 21
56.3365
  0
LINE
  8
0
 10
-28.0271
 20
56.3365
 11
-28.05
 21
56.7
  0
LINE
  8
0
 10
-28.05
 20
56.7
 11
-28.0271
 21
57.0634
  0
LINE
  8
0
 10
-28.0271
 20
57.0634
 11
-27.9589
 21
57.4212
  0
LINE
  8
0
 10
-27.9589
 20
57.4212
 11
-27.8463
 21
57.7675
  0
LINE
  8
0
 10
-27.8463
 20
57.7675
 11
-27.6913
 21
58.0971
  0
LINE
  8
0
 10
-27.6913
 20
58.0971
 11
-27.4961
 21
58.4046
  0
LINE
  8
0
 10
-27.4961
 20
58.4046
 11
-27.264
 21
58.6852
  0
LINE
  8
0
 10
-27.264
 20
58.6852
 11
-26.9985
 21
58.9345
  0
LINE
  8
0
 10
-26.9985
 20
58.9345
 11
-26.7039
 21
59.1485
  0
LINE
  8
0
 10
-26.7039
 20
59.1485
 11
-26.3848
 21
59.324
  0
LINE
  8
0
 10
-26.3848
 20
59.324
 11
-26.0461
 21
59.458
  0
LINE
  8
0
 10
-26.0461
 20
59.458
 11
-25.6934
 21
59.5486
  0
LINE
  8
0
 10
-25.6934
 20
59.5486
 11
-25.3321
 21
59.5943
  0
LINE
  8
0
 10
-25.3321
 20
59.5943
 11
-24.9679
 21
59.5943
  0
LINE
  8
0
 10
-24.9679
 20
59.5943
 11
-24.6066
 21
59.5486
  0
LINE
  8
0
 10
-24.6066
 20
59.5486
 11
-24.2538
 21
59.458
  0
LINE
  8
0
 10
-24.2538
 20
59.458
 11
-23.9152
 21
59.324
  0
LINE
  8
0
 10
-23.9152
 20
59.324
 11
-23.5961
 21
59.1485
  0
LINE
  8
0
 10
-23.5961
 20
59.1485
 11
-23.3015
 21
58.9345
  0
LINE
  8
0
 10
-23.3015
 20
58.9345
 11
-23.036
 21
58.6852
  0
LINE
  8
0
 10
-23.036
 20
58.6852
 11
-22.8038
 21
58.4046
  0
LINE
  8
0
 10
-22.8038
 20
58.4046
 11
-22.6087
 21
58.0971
  0
LINE
  8
0
 10
-22.6087
 20
58.0971
 11
-22.4536
 21
57.7675
  0
LINE
  8
0
 10
-22.4536
 20
57.7675
 11
-22.3411
 21
57.4212
  0
LINE
  8
0
 10
-22.3411
 20
57.4212
 11
-22.2729
 21
57.0634
  0
LINE
  8
0
 10
-22.2729
 20
57.0634
 11
-22.25
 21
56.7
  0
LINE
  8
0
 10
-22.25
 20
56.7
 11
-22.2729
 21
56.3365
  0
LINE
  8
0
 10
-22.2729
 20
56.3365
 11
-22.3411
 21
55.9788
  0
LINE
  8
0
 10
-22.3411
 20
55.9788
 11
-22.4536
 21
55.6324
  0
LINE
  8
0
 10
-22.4536
 20
55.6324
 11
-22.6087
 21
55.3029
  0
LINE
  8
0
 10
-22.6087
 20
55.3029
 11
-22.8038
 21
54.9954
  0
LINE
  8
0
 10
-22.8038
 20
54.9954
 11
-23.036
 21
54.7148
  0
LINE
  8
0
 10
-23.036
 20
54.7148
 11
-23.3015
 21
54.4655
  0
LINE
  8
0
 10
-23.3015
 20
54.4655
 11
-23.5961
 21
54.2514
  0
LINE
  8
0
 10
-23.5961
 20
54.2514
 11
-23.9152
 21
54.076
  0
LINE
  8
0
 10
-23.9152
 20
54.076
 11
-24.2538
 21
53.9419
  0
LINE
  8
0
 10
-24.2538
 20
53.9419
 11
-24.6066
 21
53.8513
  0
LINE
  8
0
 10
-24.6066
 20
53.8513
 11
-24.9679
 21
53.8057
  0
LINE
  8
0
 10
-24.9679
 20
53.8057
 11
-25.3321
 21
53.8057
  0
LINE
  8
0
 10
24.9679
 20
3.50572
 11
24.6066
 21
3.55136
  0
LINE
  8
0
 10
24.6066
 20
3.55136
 11
24.2538
 21
3.64194
  0
LINE
  8
0
 10
24.2538
 20
3.64194
 11
23.9152
 21
3.776
  0
LINE
  8
0
 10
23.9152
 20
3.776
 11
23.5961
 21
3.95145
  0
LINE
  8
0
 10
23.5961
 20
3.95145
 11
23.3015
 21
4.16551
  0
LINE
  8
0
 10
23.3015
 20
4.16551
 11
23.036
 21
4.41481
  0
LINE
  8
0
 10
23.036
 20
4.41481
 11
22.8038
 21
4.69542
  0
LINE
  8
0
 10
22.8038
 20
4.69542
 11
22.6087
 21
5.00291
  0
LINE
  8
0
 10
22.6087
 20
5.00291
 11
22.4536
 21
5.33243
  0
LINE
  8
0
 10
22.4536
 20
5.33243
 11
22.3411
 21
5.67879
  0
LINE
  8
0
 10
22.3411
 20
5.67879
 11
22.2729
 21
6.03653
  0
LINE
  8
0
 10
22.2729
 20
6.03653
 11
22.25
 21
6.39999
  0
LINE
  8
0
 10
22.25
 20
6.39999
 11
22.2729
 21
6.76346
  0
LINE
  8
0
 10
22.2729
 20
6.76346
 11
22.3411
 21
7.1212
  0
LINE
  8
0
 10
22.3411
 20
7.1212
 11
22.4536
 21
7.46756
  0
LINE
  8
0
 10
22.4536
 20
7.46756
 11
22.6087
 21
7.79709
  0
LINE
  8
0
 10
22.6087
 20
7.79709
 11
22.8038
 21
8.10457
  0
LINE
  8
0
 10
22.8038
 20
8.10457
 11
23.036
 21
8.38518
  0
LINE
  8
0
 10
23.036
 20
8.38518
 11
23.3015
 21
8.63449
  0
LINE
  8
0
 10
23.3015
 20
8.63449
 11
23.5961
 21
8.84854
  0
LINE
  8
0
 10
23.5961
 20
8.84854
 11
23.9152
 21
9.02399
  0
LINE
  8
0
 10
23.9152
 20
9.02399
 11
24.2538
 21
9.15807
  0
LINE
  8
0
 10
24.2538
 20
9.15807
 11
24.6066
 21
9.24863
  0
LINE
  8
0
 10
24.6066
 20
9.24863
 11
24.9679
 21
9.29427
  0
LINE
  8
0
 10
24.9679
 20
9.29427
 11
25.3321
 21
9.29427
  0
LINE
  8
0
 10
25.3321
 20
9.29427
 11
25.6934
 21
9.24863
  0
LINE
  8
0
 10
25.6934
 20
9.24863
 11
26.0461
 21
9.15807
  0
LINE
  8
0
 10
26.0461
 20
9.15807
 11
26.3848
 21
9.02399
  0
LINE
  8
0
 10
26.3848
 20
9.02399
 11
26.7039
 21
8.84854
  0
LINE
  8
0
 10
26.7039
 20
8.84854
 11
26.9985
 21
8.63449
  0
LINE
  8
0
 10
26.9985
 20
8.63449
 11
27.264
 21
8.38518
  0
LINE
  8
0
 10
27.264
 20
8.38518
 11
27.4961
 21
8.10457
  0
LINE
  8
0
 10
27.4961
 20
8.10457
 11
27.6913
 21
7.79709
  0
LINE
  8
0
 10
27.6913
 20
7.79709
 11
27.8463
 21
7.46756
  0
LINE
  8
0
 10
27.8463
 20
7.46756
 11
27.9589
 21
7.1212
  0
LINE
  8
0
 10
27.9589
 20
7.1212
 11
28.0271
 21
6.76346
  0
LINE
  8
0
 10
28.0271
 20
6.76346
 11
28.05
 21
6.39999
  0
LINE
  8
0
 10
28.05
 20
6.39999
 11
28.0271
 21
6.03653
  0
LINE
  8
0
 10
28.0271
 20
6.03653
 11
27.9589
 21
5.67879
  0
LINE
  8
0
 10
27.9589
 20
5.67879
 11
27.8463
 21
5.33243
  0
LINE
  8
0
 10
27.8463
 20
5.33243
 11
27.6913
 21
5.00291
  0
LINE
  8
0
 10
27.6913
 20
5.00291
 11
27.4961
 21
4.69542
  0
LINE
  8
0
 10
27.4961
 20
4.69542
 11
27.264
 21
4.41481
  0
LINE
  8
0
 10
27.264
 20
4.41481
 11
26.9985
 21
4.16551
  0
LINE
  8
0
 10
26.9985
 20
4.16551
 11
26.7039
 21
3.95145
  0
LINE
  8
0
 10
26.7039
 20
3.95145
 11
26.3848
 21
3.776
  0
LINE
  8
0
 10
26.3848
 20
3.776
 11
26.0461
 21
3.64194
  0
LINE
  8
0
 10
26.0461
 20
3.64194
 11
25.6934
 21
3.55136
  0
LINE
  8
0
 10
25.6934
 20
3.55136
 11
25.3321
 21
3.50572
  0
LINE
  8
0
 10
25.3321
 20
3.50572
 11
24.9679
 21
3.50572
  0
LINE
  8
0
 10
-25.3321
 20
3.50572
 11
-25.6934
 21
3.55136
  0
LINE
  8
0
 10
-25.6934
 20
3.55136
 11
-26.0461
 21
3.64194
  0
LINE
  8
0
 10
-26.0461
 20
3.64194
 11
-26.3848
 21
3.776
  0
LINE
  8
0
 10
-26.3848
 20
3.776
 11
-26.7039
 21
3.95145
  0
LINE
  8
0
 10
-26.7039
 20
3.95145
 11
-26.9985
 21
4.16551
  0
LINE
  8
0
 10
-26.9985
 20
4.16551
 11
-27.264
 21
4.41481
  0
LINE
  8
0
 10
-27.264
 20
4.41481
 11
-27.4961
 21
4.69542
  0
LINE
  8
0
 10
-27.4961
 20
4.69542
 11
-27.6913
 21
5.00291
  0
LINE
  8
0
 10
-27.6913
 20
5.00291
 11
-27.8463
 21
5.33243
  0
LINE
  8
0
 10
-27.8463
 20
5.33243
 11
-27.9589
 21
5.67879
  0
LINE
  8
0
 10
-27.9589
 20
5.67879
 11
-28.0271
 21
6.03653
  0
LINE
  8
0
 10
-28.0271
 20
6.03653
 11
-28.05
 21
6.39999
  0
LINE
  8
0
 10
-28.05
 20
6.39999
 11
-28.0271
 21
6.76346
  0
LINE
  8
0
 10
-28.0271
 20
6.76346
 11
-27.9589
 21
7.1212
  0
LINE
  8
0
 10
-27.9589
 20
7.1212
 11
-27.8463
 21
7.46756
  0
LINE
  8
0
 10
-27.8463
 20
7.46756
 11
-27.6913
 21
7.79709
  0
LINE
  8
0
 10
-27.6913
 20
7.79709
 11
-27.4961
 21
8.10457
  0
LINE
  8
0
 10
-27.4961
 20
8.10457
 11
-27.264
 21
8.38518
  0
LINE
  8
0
 10
-27.264
 20
8.38518
 11
-26.9985
 21
8.63449
  0
LINE
  8
0
 10
-26.9985
 20
8.63449
 11
-26.7039
 21
8.84854
  0
LINE
  8
0
 10
-26.7039
 20
8.84854
 11
-26.3848
 21
9.02399
  0
LINE
  8
0
 10
-26.3848
 20
9.02399
 11
-26.0461
 21
9.15807
  0
LINE
  8
0
 10
-26.0461
 20
9.15807
 11
-25.6934
 21
9.24863
  0
LINE
  8
0
 10
-25.6934
 20
9.24863
 11
-25.3321
 21
9.29427
  0
LINE
  8
0
 10
-25.3321
 20
9.29427
 11
-24.9679
 21
9.29427
  0
LINE
  8
0
 10
-24.9679
 20
9.29427
 11
-24.6066
 21
9.24863
  0
LINE
  8
0
 10
-24.6066
 20
9.24863
 11
-24.2538
 21
9.15807
  0
LINE
  8
0
 10
-24.2538
 20
9.15807
 11
-23.9152
 21
9.02399
  0
LINE
  8
0
 10
-23.9152
 20
9.02399
 11
-23.5961
 21
8.84854
  0
LINE
  8
0
 10
-23.5961
 20
8.84854
 11
-23.3015
 21
8.63449
  0
LINE
  8
0
 10
-23.3015
 20
8.63449
 11
-23.036
 21
8.38518
  0
LINE
  8
0
 10
-23.036
 20
8.38518
 11
-22.8038
 21
8.10457
  0
LINE
  8
0
 10
-22.8038
 20
8.10457
 11
-22.6087
 21
7.79709
  0
LINE
  8
0
 10
-22.6087
 20
7.79709
 11
-22.4536
 21
7.46756
  0
LINE
  8
0
 10
-22.4536
 20
7.46756
 11
-22.3411
 21
7.1212
  0
LINE
  8
0
 10
-22.3411
 20
7.1212
 11
-22.2729
 21
6.76346
  0
LINE
  8
0
 10
-22.2729
 20
6.76346
 11
-22.25
 21
6.39999
  0
LINE
  8
0
 10
-22.25
 20
6.39999
 11
-22.2729
 21
6.03653
  0
LINE
  8
0
 10
-22.2729
 20
6.03653
 11
-22.3411
 21
5.67879
  0
LINE
  8
0
 10
-22.3411
 20
5.67879
 11
-22.4536
 21
5.33243
  0
LINE
  8
0
 10
-22.4536
 20
5.33243
 11
-22.6087
 21
5.00291
  0
LINE
  8
0
 10
-22.6087
 20
5.00291
 11
-22.8038
 21
4.69542
  0
LINE
  8
0
 10
-22.8038
 20
4.69542
 11
-23.036
 21
4.41481
  0
LINE
  8
0
 10
-23.036
 20
4.41481
 11
-23.3015
 21
4.16551
  0
LINE
  8
0
 10
-23.3015
 20
4.16551
 11
-23.5961
 21
3.95145
  0
LINE
  8
0
 10
-23.5961
 20
3.95145
 11
-23.9152
 21
3.776
  0
LINE
  8
0
 10
-23.9152
 20
3.776
 11
-24.2538
 21
3.64194
  0
LINE
  8
0
 10
-24.2538
 20
3.64194
 11
-24.6066
 21
3.55136
  0
LINE
  8
0
 10
-24.6066
 20
3.55136
 11
-24.9679
 21
3.50572
  0
LINE
  8
0
 10
-24.9679
 20
3.50572
 11
-25.3321
 21
3.50572
  0
LINE
  8
0
 10
80.4058
 20
5.00294
 11
80.2189
 21
5.02657
  0
LINE
  8
0
 10
80.2189
 20
5.02657
 11
80.0365
 21
5.07341
  0
LINE
  8
0
 10
80.0365
 20
5.07341
 11
79.8613
 21
5.14275
  0
LINE
  8
0
 10
79.8613
 20
5.14275
 11
79.6963
 21
5.23351
  0
LINE
  8
0
 10
79.6963
 20
5.23351
 11
79.5439
 21
5.34422
  0
LINE
  8
0
 10
79.5439
 20
5.34422
 11
79.4065
 21
5.47318
  0
LINE
  8
0
 10
79.4065
 20
5.47318
 11
79.2865
 21
5.61832
  0
LINE
  8
0
 10
79.2865
 20
5.61832
 11
79.1855
 21
5.77736
  0
LINE
  8
0
 10
79.1855
 20
5.77736
 11
79.1053
 21
5.9478
  0
LINE
  8
0
 10
79.1053
 20
5.9478
 11
79.0471
 21
6.12695
  0
LINE
  8
0
 10
79.0471
 20
6.12695
 11
79.0118
 21
6.312
  0
LINE
  8
0
 10
79.0118
 20
6.312
 11
79
 21
6.5
  0
LINE
  8
0
 10
79
 20
6.5
 11
79.0118
 21
6.68799
  0
LINE
  8
0
 10
79.0118
 20
6.68799
 11
79.0471
 21
6.87303
  0
LINE
  8
0
 10
79.0471
 20
6.87303
 11
79.1053
 21
7.05219
  0
LINE
  8
0
 10
79.1053
 20
7.05219
 11
79.1855
 21
7.22263
  0
LINE
  8
0
 10
79.1855
 20
7.22263
 11
79.2865
 21
7.38167
  0
LINE
  8
0
 10
79.2865
 20
7.38167
 11
79.4065
 21
7.52681
  0
LINE
  8
0
 10
79.4065
 20
7.52681
 11
79.5439
 21
7.65576
  0
LINE
  8
0
 10
79.5439
 20
7.65576
 11
79.6963
 21
7.76648
  0
LINE
  8
0
 10
79.6963
 20
7.76648
 11
79.8613
 21
7.85724
  0
LINE
  8
0
 10
79.8613
 20
7.85724
 11
80.0365
 21
7.92657
  0
LINE
  8
0
 10
80.0365
 20
7.92657
 11
80.2189
 21
7.97342
  0
LINE
  8
0
 10
80.2189
 20
7.97342
 11
80.4058
 21
7.99704
  0
LINE
  8
0
 10
80.4058
 20
7.99704
 11
80.5942
 21
7.99704
  0
LINE
  8
0
 10
80.5942
 20
7.99704
 11
80.7811
 21
7.97342
  0
LINE
  8
0
 10
80.7811
 20
7.97342
 11
80.9635
 21
7.92657
  0
LINE
  8
0
 10
80.9635
 20
7.92657
 11
81.1387
 21
7.85724
  0
LINE
  8
0
 10
81.1387
 20
7.85724
 11
81.3037
 21
7.76648
  0
LINE
  8
0
 10
81.3037
 20
7.76648
 11
81.4561
 21
7.65576
  0
LINE
  8
0
 10
81.4561
 20
7.65576
 11
81.5934
 21
7.52681
  0
LINE
  8
0
 10
81.5934
 20
7.52681
 11
81.7135
 21
7.38167
  0
LINE
  8
0
 10
81.7135
 20
7.38167
 11
81.8145
 21
7.22263
  0
LINE
  8
0
 10
81.8145
 20
7.22263
 11
81.8947
 21
7.05219
  0
LINE
  8
0
 10
81.8947
 20
7.05219
 11
81.9529
 21
6.87303
  0
LINE
  8
0
 10
81.9529
 20
6.87303
 11
81.9882
 21
6.68799
  0
LINE
  8
0
 10
81.9882
 20
6.68799
 11
82
 21
6.5
  0
LINE
  8
0
 10
82
 20
6.5
 11
81.9882
 21
6.312
  0
LINE
  8
0
 10
81.9882
 20
6.312
 11
81.9529
 21
6.12695
  0
LINE
  8
0
 10
81.9529
 20
6.12695
 11
81.8947
 21
5.9478
  0
LINE
  8
0
 10
81.8947
 20
5.9478
 11
81.8145
 21
5.77736
  0
LINE
  8
0
 10
81.8145
 20
5.77736
 11
81.7135
 21
5.61832
  0
LINE
  8
0
 10
81.7135
 20
5.61832
 11
81.5934
 21
5.47318
  0
LINE
  8
0
 10
81.5934
 20
5.47318
 11
81.4561
 21
5.34422
  0
LINE
  8
0
 10
81.4561
 20
5.34422
 11
81.3037
 21
5.23351
  0
LINE
  8
0
 10
81.3037
 20
5.23351
 11
81.1387
 21
5.14275
  0
LINE
  8
0
 10
81.1387
 20
5.14275
 11
80.9635
 21
5.07341
  0
LINE
  8
0
 10
80.9635
 20
5.07341
 11
80.7811
 21
5.02657
  0
LINE
  8
0
 10
80.7811
 20
5.02657
 11
80.5942
 21
5.00294
  0
LINE
  8
0
 10
80.5942
 20
5.00294
 11
80.4058
 21
5.00294
  0
LINE
  8
0
 10
-80.5942
 20
5.00294
 11
-80.7811
 21
5.02657
  0
LINE
  8
0
 10
-80.7811
 20
5.02657
 11
-80.9635
 21
5.07341
  0
LINE
  8
0
 10
-80.9635
 20
5.07341
 11
-81.1387
 21
5.14275
  0
LINE
  8
0
 10
-81.1387
 20
5.14275
 11
-81.3037
 21
5.23351
  0
LINE
  8
0
 10
-81.3037
 20
5.23351
 11
-81.4561
 21
5.34422
  0
LINE
  8
0
 10
-81.4561
 20
5.34422
 11
-81.5934
 21
5.47318
  0
LINE
  8
0
 10
-81.5934
 20
5.47318
 11
-81.7135
 21
5.61832
  0
LINE
  8
0
 10
-81.7135
 20
5.61832
 11
-81.8145
 21
5.77736
  0
LINE
  8
0
 10
-81.8145
 20
5.77736
 11
-81.8947
 21
5.9478
  0
LINE
  8
0
 10
-81.8947
 20
5.9478
 11
-81.9529
 21
6.12695
  0
LINE
  8
0
 10
-81.9529
 20
6.12695
 11
-81.9882
 21
6.312
  0
LINE
  8
0
 10
-81.9882
 20
6.312
 11
-82
 21
6.5
  0
LINE
  8
0
 10
-82
 20
6.5
 11
-81.9882
 21
6.68799
  0
LINE
  8
0
 10
-81.9882
 20
6.68799
 11
-81.9529
 21
6.87303
  0
LINE
  8
0
 10
-81.9529
 20
6.87303
 11
-81.8947
 21
7.05219
  0
LINE
  8
0
 10
-81.8947
 20
7.05219
 11
-81.8145
 21
7.22263
  0
LINE
  8
0
 10
-81.8145
 20
7.22263
 11
-81.7135
 21
7.38167
  0
LINE
  8
0
 10
-81.7135
 20
7.38167
 11
-81.5934
 21
7.52681
  0
LINE
  8
0
 10
-81.5934
 20
7.52681
 11
-81.4561
 21
7.65576
  0
LINE
  8
0
 10
-81.4561
 20
7.65576
 11
-81.3037
 21
7.76648
  0
LINE
  8
0
 10
-81.3037
 20
7.76648
 11
-81.1387
 21
7.85724
  0
LINE
  8
0
 10
-81.1387
 20
7.85724
 11
-80.9635
 21
7.92657
  0
LINE
  8
0
 10
-80.9635
 20
7.92657
 11
-80.7811
 21
7.97342
  0
LINE
  8
0
 10
-80.7811
 20
7.97342
 11
-80.5942
 21
7.99704
  0
LINE
  8
0
 10
-80.5942
 20
7.99704
 11
-80.4058
 21
7.99704
  0
LINE
  8
0
 10
-80.4058
 20
7.99704
 11
-80.2189
 21
7.97342
  0
LINE
  8
0
 10
-80.2189
 20
7.97342
 11
-80.0365
 21
7.92657
  0
LINE
  8
0
 10
-80.0365
 20
7.92657
 11
-79.8613
 21
7.85724
  0
LINE
  8
0
 10
-79.8613
 20
7.85724
 11
-79.6963
 21
7.76648
  0
LINE
  8
0
 10
-79.6963
 20
7.76648
 11
-79.5439
 21
7.65576
  0
LINE
  8
0
 10
-79.5439
 20
7.65576
 11
-79.4065
 21
7.52681
  0
LINE
  8
0
 10
-79.4065
 20
7.52681
 11
-79.2865
 21
7.38167
  0
LINE
  8
0
 10
-79.2865
 20
7.38167
 11
-79.1855
 21
7.22263
  0
LINE
  8
0
 10
-79.1855
 20
7.22263
 11
-79.1053
 21
7.05219
  0
LINE
  8
0
 10
-79.1053
 20
7.05219
 11
-79.0471
 21
6.87303
  0
LINE
  8
0
 10
-79.0471
 20
6.87303
 11
-79.0118
 21
6.68799
  0
LINE
  8
0
 10
-79.0118
 20
6.68799
 11
-79
 21
6.5
  0
LINE
  8
0
 10
-79
 20
6.5
 11
-79.0118
 21
6.312
  0
LINE
  8
0
 10
-79.0118
 20
6.312
 11
-79.0471
 21
6.12695
  0
LINE
  8
0
 10
-79.0471
 20
6.12695
 11
-79.1053
 21
5.9478
  0
LINE
  8
0
 10
-79.1053
 20
5.9478
 11
-79.1855
 21
5.77736
  0
LINE
  8
0
 10
-79.1855
 20
5.77736
 11
-79.2865
 21
5.61832
  0
LINE
  8
0
 10
-79.2865
 20
5.61832
 11
-79.4065
 21
5.47318
  0
LINE
  8
0
 10
-79.4065
 20
5.47318
 11
-79.5439
 21
5.34422
  0
LINE
  8
0
 10
-79.5439
 20
5.34422
 11
-79.6963
 21
5.23351
  0
LINE
  8
0
 10
-79.6963
 20
5.23351
 11
-79.8613
 21
5.14275
  0
LINE
  8
0
 10
-79.8613
 20
5.14275
 11
-80.0365
 21
5.07341
  0
LINE
  8
0
 10
-80.0365
 20
5.07341
 11
-80.2189
 21
5.02657
  0
LINE
  8
0
 10
-80.2189
 20
5.02657
 11
-80.4058
 21
5.00294
  0
LINE
  8
0
 10
-80.4058
 20
5.00294
 11
-80.5942
 21
5.00294
  0
ENDSEC
  0
SECTION
  2
OBJECTS
  0
DICTIONARY
  0
ENDSEC
  0
EOF
